<?xml version="1.0" encoding="utf-8"?>
<!-- Generator: Adobe Illustrator 21.1.0, SVG Export Plug-In . SVG Version: 6.00 Build 0)  -->
<svg version="1.1" id="Layer_1" xmlns="http://www.w3.org/2000/svg" xmlns:xlink="http://www.w3.org/1999/xlink" x="0px" y="0px"
	 viewBox="0 0 728.7 236.6" style="enable-background:new 0 0 728.7 236.6;" xml:space="preserve">
<style type="text/css">
	.st0{fill:url(#SVGID_1_);}
	.st1{fill:#FFFFFF;}
	.st2{fill:#B68A35;}
	.st3{fill:url(#SVGID_2_);}
	.st4{fill:url(#SVGID_3_);}
	.st5{fill:url(#SVGID_4_);}
	.st6{fill:url(#SVGID_5_);}
	.st7{fill:url(#SVGID_6_);}
	.st8{fill:url(#SVGID_7_);}
	.st9{fill:url(#SVGID_8_);}
	.st10{fill:url(#SVGID_9_);}
	.st11{fill:url(#SVGID_10_);}
	.st12{fill:url(#SVGID_11_);}
	.st13{fill:url(#SVGID_12_);}
	.st14{fill:url(#SVGID_13_);}
	.st15{fill-rule:evenodd;clip-rule:evenodd;}
	.st16{fill-rule:evenodd;clip-rule:evenodd;fill:#FFFFFF;}
	.st17{fill:none;}
	.st18{fill:#D9D9D9;}
	.st19{fill:url(#SVGID_14_);}
	.st20{fill:#00843D;}
	.st21{fill:url(#SVGID_15_);}
	.st22{fill:#C8102E;}
</style>
<g>
	<g>
		<g>
			<path d="M148.5,177.7c-0.1,0.1-0.1,0.1-0.2,0.1c-15.8,9.5-33.7,16.2-52.5,16.7c-0.9,0.7-3,2.3-3,2.3s-2.2-1.6-3-2.3
				c-18.8-0.5-36.8-7.1-52.5-16.7c-0.1-0.1-0.1-0.1-0.2-0.1c-0.2,0.1-16.5,10.3-16.5,10.3v21.9c21.1,12.5,44.3,20,69.3,20.5
				c0.8,0.8,3,2.5,3,2.5s2.2-1.7,3-2.5c25-0.5,48.3-8,69.3-20.5V188C165.1,188,148.7,177.8,148.5,177.7z"/>
		</g>
		<linearGradient id="SVGID_1_" gradientUnits="userSpaceOnUse" x1="23.5713" y1="205.1922" x2="161.8359" y2="205.1922">
			<stop  offset="0" style="stop-color:#C8102E"/>
			<stop  offset="0.142" style="stop-color:#C91331"/>
			<stop  offset="0.2561" style="stop-color:#CB1D3A"/>
			<stop  offset="0.3605" style="stop-color:#CF2E48"/>
			<stop  offset="0.4585" style="stop-color:#D4465D"/>
			<stop  offset="0.5169" style="stop-color:#D8586D"/>
			<stop  offset="0.5738" style="stop-color:#D4455C"/>
			<stop  offset="0.6628" style="stop-color:#CF2D48"/>
			<stop  offset="0.7584" style="stop-color:#CB1D39"/>
			<stop  offset="0.8641" style="stop-color:#C91331"/>
			<stop  offset="1" style="stop-color:#C8102E"/>
		</linearGradient>
		<path class="st0" d="M149.1,181.3c-15.7,9-34.6,16-52.9,16.5c-0.5,0.4-3.5,2.7-3.5,2.7s-3.1-2.3-3.5-2.7
			c-18.3-0.6-37.2-7.5-52.9-16.5L23.6,190l0,18.3c20.2,11.4,42.8,18.1,66.1,18.6l0.4,0c0,0,1.8,1.5,2.6,2.2v0c0,0,0,0,0,0v0v0
			c0.9-0.7,2.6-2.2,2.6-2.2l0.4,0c23.3-0.5,45.9-7.1,66.1-18.6l0-18.3L149.1,181.3z"/>
		<path class="st1" d="M69.3,16.1c-4.2,2.3-4.4,5.1-3.5,7c0.4-0.3,2.1-0.3,4.2-1.3c0.9-0.2,5.5,0.6,8.6,3.2c0.3-1.2,0.5-2.4,0.5-3.7
			c0-4.1-1.8-7.6-4.6-9.8c-0.3,0.2-0.6,0.3-1,0.5C70,14,70.5,15.5,69.3,16.1z"/>
		<path class="st2" d="M177,104.8c-0.1-1-0.3-2-0.4-3c-1-8.5-0.7-16.7-0.5-25.2c0.2-7.9-1-15.2-5-22.1c-3.5-6.1-9.7-14.1-17.2-15.1
			c-6.9-0.9-11.5,5.2-17.8,6.9c-7,1.9-11.1,1.7-17.6-3.1c-2.7-2.6-12.2-22.4-14.8-26.5c-2.9-4.6-6.8-7.3-12.3-8.6
			c-6-1.4-16.7,1.1-19,4c-1.6,2-2.4,1.7-2.4,3.1c-0.1,2.4,4.8,7.4,8.8,10.1c-3.1,0.2,1.6,7.2,0.9,8.9c-0.7,1.7-0.6,10.6-10.8,12.6
			c-8.1,2.1-17.6,0.2-20-0.5c-6.4-1.7-11.5-7.5-18.4-6.6c-7.5,1-13.2,8.7-16.7,14.8C10,61.3,8.8,68.6,9,76.5
			c0.2,8.5,0.4,16.8-0.5,25.2c-0.1,1-0.2,2-0.4,3C8,104.4,43.3,86.1,44.4,85c1.6-1.6,2.3-2.6,4.1-4.5l0.1,47.4c0,0,5.6-7.3,7.1-5.8
			c0.9,0.9-2.8,25.7-6,37.4c0.8,0,5-2.5,5.6-2.2c0.7,0.4,0.4,6.2,0.6,6.8c0.4-0.7,1.9-3.4,3.1-3.1c1.2,0.3,1.3,3.5,1.3,4.4
			c1-2.2,1.9-5.2,3-7.4c1.1-2.1,3.3-6.1,4.8-8.4c1.2-1.8,6.1-7.1,9-8c3.8-1.2,13.5-0.2,15.2,4.9c0,0,0.6,0,0.7,0
			c2.7-6.9,12.3-7.1,17.1-3.4c2.4,1.9,8.6,10.2,9.7,12.3c1.1,2.1,4.1,7.9,5.2,10.1c0-0.9-0.1-4.2,1.1-4.5c1.2-0.3,2.7,2.4,3.1,3.1
			c0.3-0.5,0-6.4,0.6-6.8c0.6-0.3,4.8,2.2,5.6,2.2c-3.2-10.2-5.6-30.7-5.7-32.1c-0.1-1.1-0.5-9.8,0.1-13.3c0.3,6.1,1,7.4,6.7,13.8
			c0.1-1.6,0.5-43.1,0.2-47.4c1.8,1.8,2.3,3.2,4.1,4.5C146.5,89,177.1,104.4,177,104.8z"/>
		<linearGradient id="SVGID_2_" gradientUnits="userSpaceOnUse" x1="153.1646" y1="135.3679" x2="160.0146" y2="119.0798">
			<stop  offset="0" style="stop-color:#FFFFFF"/>
			<stop  offset="1" style="stop-color:#B68A35"/>
		</linearGradient>
		<path class="st3" d="M136.9,118.6c0.1-0.2,0.2-0.3,0.3-0.4c0.7,0.6,1.4,1.3,2,2c2.9,2.9,4.8,6.5,7.1,9.8c2.5,3.5,5.8,6.2,8.9,9.2
			c2.6,2.4,15.2,11.7,21.3,15.5c0.9-4.9-0.3-14.7-0.2-19.6c0.1-4.4,0-7.5-3.9-10.2c-5.1-3.6-11-5.9-16.4-8.9
			c-4.7-2.7-9.1-6.3-13.8-9.1c-3.5-2.1-4.8-4.5-5.4-7.3C136.2,105.8,136.4,112.2,136.9,118.6z"/>
		
			<linearGradient id="SVGID_3_" gradientUnits="userSpaceOnUse" x1="-4534.9263" y1="135.3676" x2="-4528.0767" y2="119.0801" gradientTransform="matrix(-1 0 0 1 -4502.8584 0)">
			<stop  offset="0" style="stop-color:#FFFFFF"/>
			<stop  offset="1" style="stop-color:#B68A35"/>
		</linearGradient>
		<path class="st4" d="M48.3,118.6c-0.1-0.2-0.2-0.3-0.3-0.4c-0.7,0.6-1.4,1.3-2,2c-2.9,2.9-4.7,6.5-7.1,9.8
			c-2.5,3.5-5.8,6.2-8.9,9.2c-2.6,2.4-15.1,11.7-21.3,15.5C7.8,149.8,9,140,8.9,135c-0.1-4.4,0-7.5,4-10.2c5.1-3.6,11-5.9,16.4-8.9
			c4.7-2.7,9.1-6.3,13.8-9.1c3.5-2.1,4.8-4.5,5.4-7.3C49.1,105.8,48.8,112.2,48.3,118.6z"/>
		<path class="st1" d="M110.8,142.8c-3.6-3.6-12.4-4.4-18.2,2.8c-5.8-7.2-14.6-6.4-18.2-2.8c-0.7,3.6-10.2,35-11.4,38.3
			c4.8,1.4,4.7,0.6,7.9-0.2c0.6,8.9,6,3.6,7.3,2.4c4.2,7.6,8.1,2.9,10.3-0.5c0,2.8,1.2,4.2,4.2,6.4c3-2.2,4.2-3.6,4.2-6.4
			c2.2,3.4,6.1,8.1,10.3,0.5c1.2,1.2,6.6,6.5,7.2-2.4c3.2,0.9,3,1.6,7.9,0.2C121,177.8,111.5,146.4,110.8,142.8z"/>
		<path class="st1" d="M136.9,101.9c3.3,9.6,33.8,22.9,39.9,26.7c0-6.3-0.6-10.3-0.5-15.3c0.1-4.4,0-7.5-3.9-10.3
			c-5.1-3.5-11-5.9-16.4-8.9c-4.7-2.7-9.1-6.3-13.8-9.1c-3.5-2.1-4.8-4.5-5.4-7.3C136.2,84.1,136.7,102,136.9,101.9z"/>
		<path class="st1" d="M136.9,135.6c0,4.5,3.2,8,6.5,10.8c0.1,2.6,1.6,9.2,7,11.3c0,3.7,3.1,8.8,8.6,11.5c0,4.7,5.8,8.8,8.8,9.5
			c-2.1,14.9,6.8,19.4,9,20.8c0-6.3-0.6-32.1-0.5-37c0.1-4.5-0.1-7.4-3.9-10.3c-15.6-11.6-29.8-27.9-35.8-34.9
			C135.9,123.6,136.7,135.8,136.9,135.6z"/>
		<path class="st1" d="M48.3,101.9c-3.3,9.6-33.8,22.9-39.9,26.7c0-6.3,0.6-10.3,0.5-15.3c-0.1-4.4,0-7.5,4-10.3
			c5.1-3.5,11-5.9,16.4-8.9C34,91.4,38.3,87.8,43,85c3.5-2.1,4.8-4.5,5.4-7.3C49.1,84.1,48.5,102,48.3,101.9z"/>
		<path class="st1" d="M48.3,135.6c0,4.5-3.1,8-6.5,10.8c-0.1,2.6-1.6,9.2-7,11.3c0,3.7-3.1,8.8-8.6,11.5c0,4.7-5.8,8.8-8.8,9.5
			c2.1,14.9-6.8,19.4-9,20.8c0-6.3,0.6-32.1,0.5-37c-0.1-4.5,0.1-7.4,4-10.3c15.6-11.6,29.8-27.9,35.8-34.9
			C49.4,123.6,48.5,135.8,48.3,135.6z"/>
		<linearGradient id="SVGID_4_" gradientUnits="userSpaceOnUse" x1="92.6123" y1="184.2368" x2="92.6123" y2="138.614">
			<stop  offset="0" style="stop-color:#FFFFFF"/>
			<stop  offset="0.1601" style="stop-color:#F9F9F9"/>
			<stop  offset="0.3645" style="stop-color:#EAEAEA"/>
			<stop  offset="0.5931" style="stop-color:#CFCFCF"/>
			<stop  offset="0.8373" style="stop-color:#ABABAB"/>
			<stop  offset="1" style="stop-color:#8F8F8F"/>
		</linearGradient>
		<path class="st5" d="M110.8,142.8c-3.6-3.6-12.4-4.4-18.2,2.8c-5.8-7.2-14.6-6.4-18.2-2.8c-0.7,3.6-10.2,35-11.4,38.3
			c4.8,1.4,4.7,0.6,7.9-0.2c0.6,8.9,6,3.6,7.3,2.4c4.2,7.6,8.1,2.9,10.3-0.5c0,2.8,1.2,4.2,4.2,6.4c3-2.2,4.2-3.6,4.2-6.4
			c2.2,3.4,6.1,8.1,10.3,0.5c1.2,1.2,6.6,6.5,7.2-2.4c3.2,0.9,3,1.6,7.9,0.2C121,177.8,111.5,146.4,110.8,142.8z"/>
		<linearGradient id="SVGID_5_" gradientUnits="userSpaceOnUse" x1="151.627" y1="113.8852" x2="159.3432" y2="97.9988">
			<stop  offset="0" style="stop-color:#FFFFFF"/>
			<stop  offset="0.1601" style="stop-color:#F9F9F9"/>
			<stop  offset="0.3645" style="stop-color:#EAEAEA"/>
			<stop  offset="0.5931" style="stop-color:#CFCFCF"/>
			<stop  offset="0.8373" style="stop-color:#ABABAB"/>
			<stop  offset="1" style="stop-color:#8F8F8F"/>
		</linearGradient>
		<path class="st6" d="M136.9,101.9c3.3,9.6,33.8,22.9,39.9,26.7c0-6.3-0.6-10.3-0.5-15.3c0.1-4.4,0-7.5-3.9-10.3
			c-5.1-3.5-11-5.9-16.4-8.9c-4.7-2.7-9.1-6.3-13.8-9.1c-3.5-2.1-4.8-4.5-5.4-7.3C136.2,84.1,136.7,102,136.9,101.9z"/>
		<linearGradient id="SVGID_6_" gradientUnits="userSpaceOnUse" x1="156.9022" y1="158.0715" x2="165.2735" y2="148.3304">
			<stop  offset="0" style="stop-color:#FFFFFF"/>
			<stop  offset="0.1601" style="stop-color:#F9F9F9"/>
			<stop  offset="0.3645" style="stop-color:#EAEAEA"/>
			<stop  offset="0.5931" style="stop-color:#CFCFCF"/>
			<stop  offset="0.8373" style="stop-color:#ABABAB"/>
			<stop  offset="1" style="stop-color:#8F8F8F"/>
		</linearGradient>
		<path class="st7" d="M136.9,135.6c0,4.5,3.2,8,6.5,10.8c0.1,2.6,1.6,9.2,7,11.3c0,3.7,3.1,8.8,8.6,11.5c0,4.7,5.8,8.8,8.8,9.5
			c-2.1,14.9,6.8,19.4,9,20.8c0-6.3-0.6-32.1-0.5-37c0.1-4.5-0.1-7.4-3.9-10.3c-15.6-11.6-29.8-27.9-35.8-34.9
			C135.9,123.6,136.7,135.8,136.9,135.6z"/>
		
			<linearGradient id="SVGID_7_" gradientUnits="userSpaceOnUse" x1="777.1419" y1="113.8837" x2="784.8571" y2="97.9995" gradientTransform="matrix(-1 0 0 1 810.7442 0)">
			<stop  offset="0" style="stop-color:#FFFFFF"/>
			<stop  offset="0.1601" style="stop-color:#F9F9F9"/>
			<stop  offset="0.3645" style="stop-color:#EAEAEA"/>
			<stop  offset="0.5931" style="stop-color:#CFCFCF"/>
			<stop  offset="0.8373" style="stop-color:#ABABAB"/>
			<stop  offset="1" style="stop-color:#8F8F8F"/>
		</linearGradient>
		<path class="st8" d="M48.3,101.9c-3.3,9.6-33.8,22.9-39.9,26.7c0-6.3,0.6-10.3,0.5-15.3c-0.1-4.4,0-7.5,4-10.3
			c5.1-3.5,11-5.9,16.4-8.9C34,91.4,38.3,87.8,43,85c3.5-2.1,4.8-4.5,5.4-7.3C49.1,84.1,48.5,102,48.3,101.9z"/>
		
			<linearGradient id="SVGID_8_" gradientUnits="userSpaceOnUse" x1="782.4221" y1="158.0711" x2="790.7935" y2="148.33" gradientTransform="matrix(-1 0 0 1 810.7442 0)">
			<stop  offset="0" style="stop-color:#FFFFFF"/>
			<stop  offset="0.1601" style="stop-color:#F9F9F9"/>
			<stop  offset="0.3645" style="stop-color:#EAEAEA"/>
			<stop  offset="0.5931" style="stop-color:#CFCFCF"/>
			<stop  offset="0.8373" style="stop-color:#ABABAB"/>
			<stop  offset="1" style="stop-color:#8F8F8F"/>
		</linearGradient>
		<path class="st9" d="M48.3,135.6c0,4.5-3.1,8-6.5,10.8c-0.1,2.6-1.6,9.2-7,11.3c0,3.7-3.1,8.8-8.6,11.5c0,4.7-5.8,8.8-8.9,9.5
			c2.1,14.9-6.8,19.4-9,20.8c0-6.3,0.6-32.1,0.5-37c-0.1-4.5,0.1-7.5,4-10.3c21.6-15.4,29.8-27.9,35.8-34.9
			C49.4,123.6,48.5,135.8,48.3,135.6z"/>
		<linearGradient id="SVGID_9_" gradientUnits="userSpaceOnUse" x1="42.1424" y1="152.5268" x2="68.0935" y2="126.3499">
			<stop  offset="0" style="stop-color:#FFFFFF"/>
			<stop  offset="0.2976" style="stop-color:#E6D7BB"/>
			<stop  offset="0.6347" style="stop-color:#CCAE73"/>
			<stop  offset="0.8777" style="stop-color:#BC9446"/>
			<stop  offset="1" style="stop-color:#B68A35"/>
		</linearGradient>
		<path class="st10" d="M56.2,164.5c0-1.4,0.7-5.4-0.9-6.6c-1-0.8-3.6,1.4-5.7,2.7c3.7-11.6,12.4-46.4,11-56.7
			c10.6,5.6,16.3,9.1,22.8,13.8c6.5,4.7,7.2,18.4,3,16.8c-9.3-3.6-21.4,8.8-25.5,29.2C59.8,161.2,59,159.2,56.2,164.5z"/>
		<linearGradient id="SVGID_10_" gradientUnits="userSpaceOnUse" x1="141.2714" y1="154.4237" x2="117.4642" y2="126.6746">
			<stop  offset="0" style="stop-color:#FFFFFF"/>
			<stop  offset="0.2976" style="stop-color:#E6D7BB"/>
			<stop  offset="0.6347" style="stop-color:#CCAE73"/>
			<stop  offset="0.8777" style="stop-color:#BC9446"/>
			<stop  offset="1" style="stop-color:#B68A35"/>
		</linearGradient>
		<path class="st11" d="M129.1,164.5c0-1.4-0.7-5.4,0.9-6.6c1-0.8,3.6,1.4,5.7,2.7c-3.7-11.6-12.4-46.4-11-56.7
			c-10.6,5.6-16.3,9.1-22.8,13.8c-6.5,4.7-7.2,18.4-3,16.8c9.3-3.6,21.4,8.8,25.5,29.2C125.4,161.2,126.3,159.2,129.1,164.5z"/>
		<linearGradient id="SVGID_11_" gradientUnits="userSpaceOnUse" x1="1.8677" y1="44.5473" x2="35.5823" y2="68.6291">
			<stop  offset="0" style="stop-color:#FFFFFF"/>
			<stop  offset="0.1028" style="stop-color:#FBF9F4"/>
			<stop  offset="0.2824" style="stop-color:#F1E8D7"/>
			<stop  offset="0.5174" style="stop-color:#E0CDA9"/>
			<stop  offset="0.7955" style="stop-color:#C9A869"/>
			<stop  offset="1" style="stop-color:#B68A35"/>
		</linearGradient>
		<path class="st12" d="M74.5,45.7C53.9,60.6,34.6,38.6,28,44.8c-4,3.8-15.7,16.8-15.7,22.5c0,5.7,0.7,32.6-1.2,34.5
			c5.6,0,33.9-17.8,35.6-19.4c5.6-5.6,7.4-2.7,14.5-2.7c2.5-1.8,5.5-3,8.4-4.7C79.9,68.7,74.8,56.1,74.5,45.7z"/>
		<linearGradient id="SVGID_12_" gradientUnits="userSpaceOnUse" x1="134.1298" y1="35.706" x2="118.172" y2="65.8762">
			<stop  offset="0" style="stop-color:#FFFFFF"/>
			<stop  offset="0.1048" style="stop-color:#F2EADB"/>
			<stop  offset="0.2681" style="stop-color:#E0CDA9"/>
			<stop  offset="0.4298" style="stop-color:#D1B57F"/>
			<stop  offset="0.5864" style="stop-color:#C5A25F"/>
			<stop  offset="0.7366" style="stop-color:#BD9548"/>
			<stop  offset="0.8776" style="stop-color:#B88D3A"/>
			<stop  offset="1" style="stop-color:#B68A35"/>
		</linearGradient>
		<path class="st13" d="M172.5,66.2c-1.9-5.4-14.1-22-19.4-22c-6.6,0-17.4,10.8-30.2,5.8c-15.4-6.1-13.3-29.1-30.6-37.2
			c5.7,1.6,11.3,4.7,9.6,3.7c-8.3-14.9-27.8-8.8-32-2.3c-0.6,2.6,4.1,7.3,8.2,10.5c3.7,5.7,4.1,6.2,1.1,16.1
			c-2.9,9.7,20,6.7,26.4,14.4c6.9,8.4,14.8,14.9,25.4,17.4c0.4,0,0.7,0.1,1,0.2c2.1,5.7,18.6,21.5,42.3,29.2
			C171,97.6,174.4,71.6,172.5,66.2z"/>
		<g>
			<path class="st1" d="M37.5,187.6c0.6,0.9,1.4,1.1,2.6,1.1c0.4,0,0.9-0.1,1.4,0c0.4,0.1,0.9,1.6,1.5,1.7c0.6,0.1,2.2,0,2.8,0
				c1,0.1,1.9,1.3,3,1.3c0.9,0,1.6-0.8,1.8-1.6c0.3-1.1-0.2-4.6,0.9-5.5c0.5,0.4,1.8,1.4,2.4,1.7c0.6,0.2,2.1,0.9,2.6,1
				c0.2,0.1-3-5.2-3.1-6.3c-0.4-3.6,2.8-8.4,3.8-10.5c0.4-1,1.5-4.6,1.9-5.6c0.4-1,0.8-3.5-0.2-2.8c-3.6,2.5-2.7-3.6-3.8-3.3
				c-2.8,0.6-3.4,5.1-4.1,7.3c-0.5,1.8-4.5,11.2-5.2,11.4c-0.7-0.4-1.9,0-2.9,1.6c-1.1-1.2-2.2-3-3.9-2.9c-2.2,0.2-1.3,3.4-1.1,4.8
				c0.1,0.9-0.8,4.3-0.7,5.1c0.1,0.4,0.2,1,0.3,1.4L37.5,187.6z"/>
		</g>
		<g>
			<path class="st1" d="M148.1,187.5c-0.6,0.9-2.1,1.5-3.3,1.5c-0.4,0-1.5,0.5-1.9,0.9c-0.4,0.4-1.1,0.3-1.7,0.4
				c-0.6,0.1-1,0.2-1.6,0.3c-1,0.1-1.9,1.1-3,1.2c-0.9,0-1.7-0.8-1.9-1.7c-0.3-1.1-0.9-4.8-1.5-4.5c-0.6,0.3-3.1,1.3-4.5,1.8
				c-0.3,0.1,2.8-5.4,3.2-6.4c0.4-1.1,0.6-1.8-0.1-3.4c-0.1-0.3-2.4-4.6-3.3-6.7c-0.4-1-1.8-5.1-2.2-6.1c-0.4-1-0.8-3.5,0.2-2.8
				c3.6,2.5,2.7-3.6,3.9-3.3c2.7,0.6,3.4,5.1,4.1,7.3c0.5,1.8,1.5,3.7,2.1,5.4c0.6,1.7,2.3,4.4,2.3,7c0,0,0.5-0.6,1.1-0.7
				c1.2-0.1,1.9-0.2,2.2,1.4c1-1.6,2.3-3.1,3.9-2.9c2.2,0.2,1.5,3.4,1.3,4.7c-0.1,0.9,0,1.4,0.3,2.3
				C148.9,186.3,148.1,187.5,148.1,187.5z"/>
		</g>
		<linearGradient id="SVGID_13_" gradientUnits="userSpaceOnUse" x1="82.0773" y1="21.497" x2="80.415" y2="13.9085">
			<stop  offset="0" style="stop-color:#FFFFFF"/>
			<stop  offset="1" style="stop-color:#000000"/>
		</linearGradient>
		<ellipse class="st14" cx="80.7" cy="15.2" rx="3.5" ry="3.1"/>
		<g>
			<path d="M70.4,18.3c0.1,0,0.2,0,0.3,0c0,0,0,0,0,0c0-0.5-0.5-0.9-1.1-0.9c-0.6,0-1.1,0.4-1.1,0.9c0,0.5,0.4,0.8,1,0.9
				c-0.1-0.1-0.1-0.2-0.1-0.2C69.3,18.6,69.8,18.3,70.4,18.3z"/>
		</g>
		<path class="st15" d="M77.9,15.9c1,3.4,6.3,1.6,4.7-2.2c2.1-0.8,3.7-0.8,5.4-1.1c-4.4-0.7-9.5-1.2-12.7,0.2
			c-1.6,0.7-1.1,1.7-0.9,2.1C74.6,14,76,14,77,14.3c-0.8,6.4,7.5,5.7,7.1,0.4C83.6,19,78.1,19,77.9,15.9z"/>
		<path class="st16" d="M82.1,14.4c-0.4-0.4-2-0.7-2.7,0c0-0.7,0.6-1.3,1.4-1.3C81.5,13.1,82.1,13.7,82.1,14.4z"/>
		<path d="M177.8,130.6c0.8,0.3,1.5,0.6,2.1,0.8c-2.3-3.5-2.1-9-2.1-10.3v-13.3c0.8,0.3,1.5,0.6,2.1,0.8c-2.3-3.5-2.1-9-2.1-10.3
			v-31c0-8.6-13.1-29.3-24.2-29.6c-7.9-0.2-17.1,10.9-28.4,8c-3.6-0.9-6.5-4.8-8.9-9.6c-4.2-8.6-8.2-20.1-18.5-26.8
			c-11.3-7.4-24.4,0.9-25.9,2.2c-1.3,1.2-3.3,4.7-4.4,5.3c-3.5,1.9-4.1,5-4.1,6.1c0,1.2,0.3,4,2.4,5.7c-0.3-1.4-0.4-2.2-0.1-2.9
			c1.4,0.2,4.5,0.9,6.5,0c1,1,3.4,2.9,4.4,4.8c1.4,2.7,1.4,3.1,1.4,4.2c0,2.7-1.3,6.7-5.2,9.3c-4.1,2.9-13.9,4.6-26,0.4
			c-6.6-2.3-9.3-6.8-15.2-6.7c-11.1,0.3-24.2,21-24.2,29.6v31c0,1.3,0.2,6.9-2.1,10.3c0.6-0.2,1.3-0.5,2.1-0.8V121
			c0,1.3,0.2,6.9-2.1,10.3c0.6-0.2,1.3-0.5,2.1-0.8v17c0,1.3,0.2,6.9-2.1,10.3c0.6-0.2,1.3-0.5,2.1-0.8v34.4c0,1,0.1,4.4-0.8,7.5
			c-0.3,1,0.4,2.3,1.5,1.8c4.4-1.8,10.9-5.2,10.9-14.9v-5.4c3.2-1.4,7-3.9,8.2-9.9c3.6-1.8,7.6-4.9,8.5-11.2
			c3.7-2.2,7.4-5.9,7.4-13.1c3.2-2.4,5.1-5.3,5.5-7.5c0.3-1.5,0.5-5.1,0.5-9.2c2.3-1.7,4-3.6,5-5.4c-0.4,8.9-2.2,21-6.4,37.6
			c0.7,0,1.7-0.2,2.8-0.4c-0.6,3.4-3.4,11.4-5.3,15c-0.3,0-0.5,0-0.8,0c-0.6,0.1-1.1,0.7-1.4,1.5c-0.9-1.3-1.9-3.4-4.5-2.6
			c-2.5,0.8-2,3.9-1.5,5.3c0.9,2.7-1.1,3.6-0.7,5.9c0.2,1.6,1.2,2.7,2.3,3.2c0.3,0.7,0.9,1.2,1.6,1.6c0.8,0.3,0.7-0.4,0.7-1.4
			c0.2,0,0.3-0.1,0.5-0.2c0.2,0.7,0.7,1.3,1.3,1.6c0.3,0.6,0.8,1.1,1.8,1.7c1,0.5,0.3-0.6,0.1-1.6c0.4-0.1,0.7-0.2,1.1-0.5
			c0.1,0.3,0.3,0.6,0.6,0.8c0.1,0.1,0.2,0.1,0.3,0.2c0.2,1,1,1.6,2,2.2c0.7,0.2,0.4-0.6,0.4-1.4c1,0,1.9-0.5,2.3-2.2
			c0.6-2.3-0.7-2.1,0.7-4.8c0.3,0,2.3,0.9,2.7,1c-1.9-0.8-3-5.4-3.4-4.1c-1.7,3-0.2,8.6-2.1,8.7c-5.4,0.4-1.4-6.4-1.2-8.1
			c0.3-2.2,0-5.3,2.1-4.7c1.9,0.6,4.3,6.7,5.5,8.6c0.2,0.3,2.9,1.9,3,1.2c-2.5-2.5-4-6.4-4.2-7.7c-0.4-1.8-0.2-2.6,0.3-4
			c0.5-1.3,3.6-6.7,4.8-9.3c0.3,1.1,0.7,2,0.9,2.8c0.4-5.6,6.7-16.3,12.2-22.6c-2,6.4-6.5,22-7.8,26.4c-1,3.6-3.4,7.3-4,7.8
			c2.1,0.8,5.9,1.4,8.6,0.3c-0.4,1.4-0.4,2.7,0.8,3.9c1.5,1.5,5.6,2.5,7.6-0.9c1.6,5.8,7.8,5.5,10.3,1.5c1.1,3.3,3.3,3.8,4.5,5
			c1.3-1.3,3.5-1.7,4.5-5c2.4,4,8.7,4.3,10.3-1.5c2,3.5,6.2,2.4,7.6,0.9c1.2-1.2,1.2-2.5,0.8-3.9c2.7,1.1,6.5,0.5,8.6-0.3
			c-0.6-0.6-3-4.3-4-7.8c-1.2-4.3-5.7-20-7.8-26.4c5.5,6.3,11.8,17,12.2,22.6c0.2-0.8,0.5-1.8,0.9-2.8c1.3,2.6,4.3,8,4.8,9.3
			c0.5,1.3,0.7,2.2,0.3,4c-0.3,1.3-1.4,5.2-3.9,7.7c0.1,0.7,2.4-0.6,2.5-0.8c1.2-1.9,3.7-8.3,5.6-8.9c2.1-0.7,1.9,2.5,2.1,4.7
			c0.2,1.7,4.2,8.5-1.2,8.1c-1.9-0.1-0.4-5.7-2.1-8.7c-0.3-1.4-1.4,3.5-3.4,4.3c0.4-0.1,2.3-1.1,2.6-1.2c1.3,2.7,0.2,2.5,0.8,4.8
			c0.4,1.6,1.3,2.2,2.3,2.2c-0.1,0.8-0.3,1.6,0.4,1.4c1.1-0.6,1.8-1.2,2-2.2c0.1-0.1,0.2-0.1,0.3-0.2c0.3-0.2,0.5-0.4,0.6-0.8
			c0.4,0.2,0.7,0.4,1.1,0.5c-0.2,1-0.9,2,0.1,1.6c1-0.7,1.5-1.2,1.8-1.7c0.6-0.3,1.1-0.8,1.3-1.6c0.2,0.1,0.3,0.1,0.5,0.2
			c0,1-0.1,1.7,0.7,1.4c0.8-0.3,1.3-0.9,1.6-1.5c1.1-0.5,2.1-1.6,2.3-3.2c0.3-2.2-1.6-3.1-0.7-5.9c0.4-1.4,1-4.5-1.6-5.3
			c-2.5-0.8-3.6,1.3-4.5,2.6c-0.3-0.8-0.8-1.4-1.4-1.5c-0.3-0.1-0.6-0.1-0.8,0c-1.9-3.6-4.8-11.6-5.3-15c1,0.2,2,0.4,2.8,0.4
			c-4.2-16.6-6-28.7-6.4-37.6c1,1.8,2.6,3.7,4.9,5.4c0.1,4.1,0.3,7.7,0.5,9.2c0.4,2.2,2.3,5.1,5.5,7.5c0,7.2,3.7,10.9,7.4,13.1
			c0.9,6.3,4.9,9.4,8.5,11.2c1.2,6,5,8.5,8.2,9.9v5.4c0,9.5,6.3,13,10.7,14.8c1.1,0.5,2.1-0.4,1.8-1.2c-1.1-3.2-1-7-1-8v-34.3
			c0.8,0.3,1.5,0.5,2.1,0.7c-2.3-3.5-2.1-9-2.1-10.3V130.6z M73,24L73,24c-0.8,0.2-4.8,0.9-5.3,0.4c0.9-0.5,1.5-0.7,3.2-1.8
			c1.2,0.1,2.4,0.8,4.3,2C74.1,24.2,74,23.8,73,24z M16.1,162.3v9.7c0,1.2-0.1,4.8-0.1,8.9l0,0v6.5c0,4.1-3.9,7.7-6.8,8.9
			c0.6-0.7,1.2-2.7,1.2-5.6v-34.7c1.8-0.9,3.7-2.1,5.2-3.9c0.2-0.1,0.4-0.1,0.6-0.2C16.1,157.2,16.1,161.4,16.1,162.3z M16.1,132.6
			c0,1.6-0.1,9.7-0.1,10.7c0,4.2-3.9,7.7-6.8,9c0.6-0.7,1.2-2.7,1.2-5.7v-17.3c1.5-0.8,3.1-1.8,4.5-3.2c0.4-0.2,0.9-0.3,1.4-0.5
			C16.2,127.9,16.1,130.9,16.1,132.6z M9.2,125.7c0.6-0.7,1.2-2.7,1.2-5.7v-13.6c1.5-0.8,3.1-1.8,4.5-3.1c0.4-0.2,0.9-0.3,1.4-0.5
			c-0.1,1.1-0.1,2.3-0.1,3.7v8.3C16.1,120.9,12.4,124.3,9.2,125.7z M18.9,101.6c1.7-0.8,3.5-2,5-3.6c0.3-0.1,0.6-0.2,1-0.4
			c-0.1,1.1-0.1,2.3-0.1,3.8v8.5c0,5.8-3.4,9.1-6.5,10.7c0.5-1.5,0.8-3.2,0.8-5.2v-8.3C19,105.3,18.9,103.4,18.9,101.6z M24.7,157.3
			v8.5c0,6.1-3.9,9.5-6.3,10.6c0.6-0.7,0.6-2.4,0.6-5.4v-3.1c0,0,0,0,0,0v-4.9c0-0.9,0-6,0-12.2c2-0.9,4.2-2.2,5.9-4.4
			C24.8,150.4,24.7,155.8,24.7,157.3z M24.7,127.6v8.5c0,5.7-3.5,9.4-6.4,10.7c0.4-1.4,0.6-2.9,0.6-4.7v-0.2c0,0,0,0,0,0
			c0-0.2,0-0.4,0-0.6v-3.1c0,0,0,0,0,0v-4.9c0-2.1-0.1-6-0.1-8.8c1.7-0.8,3.5-2,5-3.6c0.3-0.1,0.6-0.2,1-0.4
			C24.8,123,24.7,126.1,24.7,127.6z M27,115.4c0.4-1.4,0.6-3,0.6-4.8V97.3c0-0.3,0-0.5,0-0.8c1-0.5,2-1.1,2.9-1.8
			c0.9-0.2,1.7-0.5,2.5-0.8c0,0.9,0,1.9,0,3.5v7.7C33,110.6,30,113.8,27,115.4z M33,148.5v7.7c0,5.1-2.6,8.3-5.4,10v-13.2
			c0-0.6,0-6.9,0-10.4c1.9-1,3.9-2.4,5.5-4.4C33.1,141.2,33,146.3,33,148.5z M33,120.7v7.7c0,5.2-2.7,8.4-5.4,10.1
			c0-0.6,0.1-1.1,0.1-1.7v-13.3c0-0.4,0-2.4,0-4.1c1.1-0.6,2.2-1.3,3.2-2.1c0.7-0.2,1.4-0.5,2.2-0.9C33.1,117.8,33,117.8,33,120.7z
			 M36,114.9c1.1-0.7,2.2-1.5,3.2-2.5c0.4-0.2,0.8-0.4,1.1-0.6c0,0.7,0,1.4,0,2.3v7.7c0,4.6-2.1,7.6-4.5,9.4
			c0.1-0.7,0.1-1.5,0.1-2.3v-11.4C35.9,116.8,35.9,115.8,36,114.9z M40.2,137.9v7.7c0,4.5-2,7.5-4.3,9.3v-9.5c0-1,0-6.7,0.1-9.9
			c1.5-0.9,3.1-2.1,4.3-3.8C40.3,133.8,40.2,136.5,40.2,137.9z M40.2,93.5v7.7c0,5-2.5,8.2-5.2,9.9c0.5-1.6,0.8-3.4,0.8-5.5V94.3
			c0-0.6,0-1.2,0-1.9c1.4-0.9,2.6-1.9,3.6-3c0.3-0.1,0.6-0.3,0.9-0.4C40.3,90,40.2,91.5,40.2,93.5z M47.6,135.7
			c0,2.4-1.9,4.8-4.5,6.8v-5.5c0-1.3-0.1-8.7,0-12.2c2.1-1.6,3.7-3.4,4.6-5.1C47.7,125.6,47.6,134,47.6,135.7z M43.1,110
			c2.1-1.6,3.7-3.4,4.6-5c0,4.2-0.1,8-0.1,9.1c0,2.4-1.9,4.8-4.5,6.8v-7.7C43.1,112.2,43.1,111.1,43.1,110z M47.6,99.2
			c0,2.6-2.3,5.1-5.1,7.2c0.4-1.4,0.6-2.9,0.6-4.6c0-4.3,0-3.4,0-9.3c0-1.5-0.1-3.6,0.1-5.3c2.1-1.5,3.5-3.2,4.5-5
			C47.8,88.2,47.6,97.5,47.6,99.2z M41.4,181.2c0.2,0.8,1.1,6.6-1,7.2c-1.9,0.5-4.2-0.9-2.6-5.1c0.8-2.1-0.5-6.5,0.9-6.8
			c1.7-0.4,3.2,2.1,3.8,3.9c0.2,0.5,0.1,1.3,0.1,1.5C42.1,181.2,41.4,179.8,41.4,181.2z M47.3,183c-0.1,0.4-0.1,0.8-0.2,1.2
			c-0.4-0.9-1.2-3.2-1.2-1.6c0,1.1,0.1,7.2-1.9,7.3c-2,0.2-2.4-1.6-1.4-3.7c1-2.1,0.3-8.1,1.6-8.2c1.4-0.1,2.5,1.3,3,2.7
			C47.3,181.4,47.5,182,47.3,183z M56.6,170.4c-0.6,1.3-1.7,1.6-2.2,2.5c-0.7,1.1-0.4,2.9-1.2,3.8c-0.6,0.6-0.9,1.1-0.6,2.6
			c-0.5-0.9-1.2-1.4-1.8-1.8c-1.1-0.7-2.6-0.6-3.2,0.8c-0.2-0.3-0.4-0.6-0.7-0.9c0.2-0.4,0.4-0.8,0.6-1.2c0.4-0.9,0.3-2.1,0.6-2.6
			c0.2-0.4,1-0.9,1.4-1.6c0.4-0.7,0.3-2.3,0.6-3.1c0.3-0.8,0.8-1.1,1.1-2.1c0.1-0.3,0.3-2.3,0.6-3c0.4-1.2,1.8-2.8,3.1-3.9
			c0,2.7,0,3.4,0.5,6.5c1.3-1.3,2.3-2.2,3.1-3.3c0,2-0.2,2.5-1,3.9C56.9,168.4,57.2,169.1,56.6,170.4z M64.4,180.1
			c1.1-1.1,1.7-3.4,2.4-6c0.5-2.1,6.2-23.3,7.6-28.6c0.9-0.9,1.7-1.6,2.5-2.1c0.5-0.4,1.2-0.7,2-0.9c-1.4,5.3-6.8,29.6-7.8,34.4
			C70.2,180.1,67.8,180.7,64.4,180.1z M77.5,179.7c-0.6,3.2-0.9,5.2-4.6,4.3c-2.4-0.6-0.3-4.3,0.1-6.9c0.4-2.3,6.2-30.4,7-34.7
			c1-0.1,2.2,0,3.4,0.3C82.7,145.7,77.6,179.6,77.5,179.7z M87.8,175.4c-0.2,3.1-0.5,5.4-0.6,6.2c-1.2,6.1-8.9,5.6-7.6-2.2
			c0.4-2.1,4.4-30.4,5.2-36.4c1.6,0.4,3.2,1.1,4.5,1.9C89.3,148,88.4,164.8,87.8,175.4z M92.6,187.3c-1.5-0.9-2.7-2.5-2.7-7
			c0-4.1,0.6-30.3,0.8-34.5c1,0.9,1.8,2,2,3.2c0.2-1.2,0.9-2.3,2-3.2c0.1,4.2,0.8,30.4,0.8,34.5C95.3,184.8,94.1,186.4,92.6,187.3z
			 M98,181.6c-0.1-0.8-0.3-3.1-0.6-6.2c-0.6-10.6-1.5-27.4-1.5-30.5c1.3-0.8,2.9-1.5,4.5-1.9c0.9,6,4.8,34.3,5.2,36.4
			C106.9,187.2,99.2,187.6,98,181.6z M112.3,184c-3.7,0.9-4-1.1-4.6-4.3c0-0.1-5.2-34-5.9-37c1.2-0.2,2.3-0.3,3.4-0.3
			c0.8,3.7,6.7,32.6,7,34.7C112.6,179.7,114.7,183.4,112.3,184z M118.5,174.1c0.6,2.6,1.3,4.9,2.3,6c-3.4,0.6-5.8,0-6.6-3.1
			c-1-4.9-6.4-29.1-7.8-34.4c0.8,0.2,1.5,0.4,2,0.9c0.8,0.5,1.6,1.2,2.5,2.1C112.3,150.8,117.9,172,118.5,174.1z M142.7,180.5
			c0.6-1.8,2-4.3,3.8-3.9c1.4,0.3,0.1,4.6,0.9,6.8c1.6,4.1-0.6,5.5-2.6,5.1c-2.2-0.5-1.2-6.3-1-7.2c0.1-1.4-0.6,0-1.1,0.7
			C142.6,181.6,142.5,181.4,142.7,180.5z M141,178c1.4,0.1,0.6,6.1,1.6,8.2c1,2.1,0.6,3.9-1.4,3.7c-2-0.2-1.9-6.3-1.9-7.3
			c0-1.5-0.8,0.8-1.2,1.6c-0.1-0.4-0.2-0.8-0.2-1.2c-0.2-1,0-1.7,0-2.3C138.5,179.3,139.6,177.9,141,178z M135.8,172
			c0.4,0.7,1.2,1.2,1.4,1.6c0.3,0.5,0.2,1.7,0.6,2.6c0.2,0.4,0.4,0.8,0.6,1.2c-0.3,0.3-0.5,0.6-0.7,0.9c-0.6-1.3-2.1-1.5-3.2-0.8
			c-0.6,0.4-1.2,0.9-1.7,1.8c0.2-1.5-0.1-2-0.7-2.6c-0.9-0.9-0.5-2.7-1.2-3.8c-0.5-0.9-1.6-1.1-2.2-2.5c-0.6-1.3-0.3-2-1-3.3
			c-0.8-1.5-0.9-1.9-1-3.9c0.9,1.1,1.8,2,3.1,3.3c0.5-3.1,0.5-3.8,0.5-6.5c1.3,1.1,2.7,2.8,3.1,3.9c0.3,0.7,0.5,2.6,0.6,3
			c0.3,1,0.8,1.3,1.1,2.1C135.5,169.7,135.4,171.3,135.8,172z M136.2,114.4c0,0.2,0,0.3,0,0.5C136.2,114.8,136.2,114.6,136.2,114.4z
			 M142.1,136.9v5.5c-2.5-2-4.5-4.4-4.5-6.8c0-1.7-0.1-10-0.1-16c0.9,1.7,2.5,3.5,4.6,5.1C142.1,128.3,142.1,135.6,142.1,136.9z
			 M137.5,104.9c0.9,1.7,2.5,3.5,4.6,5.1c0,1.1,0,2.2,0,3.1v7.7c-2.5-2-4.5-4.4-4.5-6.8C137.6,113,137.5,109.1,137.5,104.9z
			 M137.6,99.2c0-1.8-0.1-11-0.2-17.1c1,1.7,2.5,3.4,4.5,5c0.2,1.7,0.1,3.8,0.1,5.3c0,5.9,0,5.1,0,9.3c0,1.7,0.2,3.3,0.6,4.6
			C139.8,104.4,137.6,101.8,137.6,99.2z M149.3,145.4v9.5c-2.3-1.8-4.3-4.8-4.3-9.3v-7.7c0-1.4,0-4.1-0.1-6.2
			c1.2,1.6,2.8,2.9,4.3,3.8C149.3,138.8,149.3,144.5,149.3,145.4z M145,121.9v-7.7c0-0.9,0-1.6,0-2.3c0.4,0.2,0.8,0.4,1.1,0.6
			c1,1,2.1,1.8,3.2,2.5c0.1,0.9,0.1,1.9,0.1,2.7V129c0,0.8,0.1,1.6,0.1,2.3C147,129.4,145,126.4,145,121.9z M145,101.2v-7.7
			c0-2,0-3.4-0.1-4.5c0.3,0.1,0.6,0.3,0.9,0.4c1,1.1,2.1,2.1,3.6,3c0,0.7,0,1.3,0,1.9v11.4c0,2.1,0.3,3.9,0.8,5.5
			C147.4,109.4,145,106.2,145,101.2z M157.6,153.1v13.2c-2.8-1.7-5.4-4.9-5.4-10v-7.7c0-2.2-0.1-7.3-0.1-10.3c1.6,2,3.5,3.4,5.5,4.4
			C157.6,146.2,157.6,152.5,157.6,153.1z M152.2,128.4v-7.7c0-2.9-0.1-2.9-0.1-4.3c0.8,0.3,1.6,0.6,2.3,0.9c1,0.8,2.1,1.5,3.2,2.1
			c0,1.7,0,3.7,0,4.1v13.3c0,0.6,0,1.2,0.1,1.7C154.9,136.7,152.2,133.5,152.2,128.4z M152.2,105v-7.7c0-1.6,0-2.6,0-3.5
			c0.8,0.3,1.6,0.6,2.5,0.8c0.9,0.7,1.9,1.3,2.9,1.8c0,0.3,0,0.6,0,0.8v13.3c0,1.8,0.2,3.4,0.6,4.8
			C155.2,113.8,152.2,110.6,152.2,105z M160.5,165.8v-8.5c0-1.5,0-6.9-0.1-11c1.7,2.2,3.9,3.6,5.9,4.4c0,6.3,0,11.3,0,12.2v4.9
			c0,0,0,0,0,0v3.1c0,3,0,4.7,0.5,5.4C164.4,175.3,160.5,171.9,160.5,165.8z M160.5,136.1v-8.5c0-1.5,0-4.7-0.1-7.1
			c0.3,0.1,0.7,0.2,1,0.4c1.5,1.6,3.3,2.7,5,3.6c0.1,2.8,0,6.7,0,8.8v4.9c0,0,0,0,0,0v3.1c0,0.2,0,0.4,0,0.6c0,0,0,0,0,0v0.2
			c0,1.8,0.2,3.3,0.6,4.7C164,145.5,160.5,141.8,160.5,136.1z M160.5,110v-8.5c0-1.5,0-2.8-0.1-3.8c0.3,0.1,0.7,0.3,1,0.4
			c1.5,1.6,3.3,2.7,5,3.6c0,1.8,0,3.6,0,5.5v8.3c0,2,0.3,3.7,0.7,5.2C163.8,119.1,160.5,115.8,160.5,110z M169.2,187.3v-6.5
			c0,0,0,0,0,0c0-4.1-0.1-7.7-0.1-8.9v-9.7c0-0.8,0-5-0.1-10.5c0.2,0.1,0.4,0.1,0.5,0.2c1.6,1.8,3.5,3,5.2,3.9v34.7
			c0,2.9,0.6,4.9,1.2,5.6C173.1,195,169.2,191.4,169.2,187.3z M169.2,143.3c0-1-0.1-9.1-0.1-10.7c0-1.7-0.1-4.7-0.2-7
			c0.5,0.2,1,0.4,1.5,0.5c1.4,1.4,3,2.4,4.5,3.2v17.3c0,2.9,0.6,4.9,1.2,5.7C173.1,151,169.2,147.6,169.2,143.3z M169.1,114.9v-8.4
			c0-1.4,0-2.6-0.1-3.7c0.5,0.2,0.9,0.3,1.4,0.5c1.4,1.4,3,2.4,4.5,3.1V120c0,2.9,0.6,4.9,1.2,5.7
			C172.8,124.3,169.1,120.9,169.1,114.9z M169.1,92v-3l0,0c0-1.5,0-3,0-3.7c0-2.8-0.5-6.6-3.2-8.5c0.8,3.2,0.3,3.8,0.3,9.1v3.8
			c0,0,0,0.1,0,0.6v2.4c0,2,0.3,3.7,0.7,5.2c-3.1-1.5-6.5-4.8-6.5-10.7c0-1.9-0.5-10-2.9-13.4v14c0,1.8,0.2,3.5,0.7,4.9
			c-7.4-3.7-6.6-16.4-9-21.4c0,4.3,0.1,7.3,0.1,11.5c0,2.1,0.3,3.9,0.8,5.5c-6.4-4.1-7.2-12.2-7.7-18.2c-0.6,2.2-1.7,8.1,0.1,13.7
			c-4.3-3.3-6.7-10.4-6.4-15.4c-0.6,2.8-1.3,6.9,0,11.1c-0.2,4.7-0.2,42.1-0.2,46.2c-2.5-2-5-5.7-4.7-11.3c0.1-0.9,0.2-1.8,0.3-2.6
			c1.7-11.7,2.1-28.5-2.7-41.9c3.9,21-1,42.6-1.6,47c-1.2,7.8,1.4,23.9,6.9,41.7c-1.1-1-4.7-2.6-6.2-4c0,1.6,0.6,3.3,0.6,6.9
			c-1.9-3.2-2.6-3.3-4.6-6.8c0.6,4.1,0.4,4.5,0.4,8c-1.9-3.7-3-8.6-7.5-15.5c-9.9-15.5-24.3-5.9-24.3-3.2c0-2.7-14.3-12.3-24.3,3.2
			c-4.5,7-5.5,11.9-7.5,15.5c0-3.6-0.2-3.9,0.5-8c-2,3.5-2.7,3.6-4.6,6.8c0-3.5,0.6-5.3,0.6-6.9c-1.5,1.5-5.1,3-6.2,4
			c5.5-17.8,8.1-33.9,6.9-41.7c-0.7-4.3-5.5-26-1.6-47c-4.8,13.5-4.5,30.3-2.7,41.9c0.1,0.8,0.2,1.7,0.3,2.6
			c0.3,5.6-2.3,9.3-4.7,11.3c0-4.1,0.1-41.5-0.2-46.3c1.4-4.2,0.7-8.3,0-11.1c0.3,5-2.1,12.1-6.4,15.4c1.8-5.6,0.7-11.4,0.1-13.7
			c-0.5,6-1.2,14.1-7.7,18.2c0.5-1.6,0.8-3.4,0.8-5.5c0-4.3,0.1-7.3,0.1-11.5c-2.4,4.9-1.7,17.6-9,21.4c0.4-1.4,0.6-3,0.6-4.9v-14
			c-2.4,3.3-2.9,11.4-2.9,13.4c0,5.8-3.4,9.1-6.5,10.6c0.5-1.5,0.8-3.2,0.8-5.2v-2.4c0-0.4,0-0.6,0-0.6v-3.8c0-5.4-0.6-5.9,0.3-9.1
			c-2.7,1.8-3.2,5.6-3.2,8.5c0,0.7,0,2.2,0,3.7l0,0v3c0,6.1-3.7,9.4-6.9,10.8c0.6-0.7,1.2-2.7,1.2-5.7V67.9
			c0-8.2,9.6-17.7,13.2-21.9c9.9-11.6,14.2-2.2,24.1,1.2c16.5,5.6,25.3-0.6,25.3-0.6c8.8-5.5,8.8-10.8,8.8-14.1
			c0-2.2-0.9-5.1-2.5-6.9c-3-3-8.4-4-9.3-3.8c-2,1-3.8,1-4.2,1.3c-0.9-1.8-0.7-4.7,3.5-7c1.2-0.6,0.7-2.1,4.3-4.2
			C84,5.9,94.1,8.1,100,14.7c-2.1-0.8-4.1-1.5-7.6-1.8c5,1.7,10.8,5.8,14.6,12.6c1.6,2.7,5.1,10.2,6.3,12.4
			c2.6,4.8,7.4,14.9,24.3,9.2c9.9-3.3,14.2-12.7,24.1-1.2c3.6,4.2,13.2,13.6,13.2,21.9v29.3c0,2.9,0.6,4.9,1.2,5.7
			C172.8,101.4,169.1,98.1,169.1,92z"/>
		<path class="st17" d="M55.4,166.4c-0.5-3.1-0.5-3.8-0.5-6.5c-1.3,1.1-2.7,2.8-3.1,3.9c-0.3,0.7-0.5,2.6-0.6,3
			c-0.3,1-0.8,1.3-1.1,2.1c-0.4,0.8-0.3,2.3-0.6,3.1c-0.4,0.7-1.2,1.2-1.4,1.6c-0.3,0.5-0.2,1.7-0.6,2.6c-0.2,0.4-0.4,0.8-0.6,1.2
			c0.3,0.3,0.5,0.6,0.7,0.9c0.6-1.3,2.1-1.5,3.2-0.8c0.6,0.4,1.2,0.9,1.8,1.8c-0.2-1.5,0.1-2,0.6-2.6c0.9-0.9,0.5-2.7,1.2-3.8
			c0.5-0.9,1.6-1.1,2.2-2.5c0.7-1.3,0.3-2,1-3.3c0.7-1.5,0.9-1.9,1-3.9C57.7,164.2,56.7,165.1,55.4,166.4z"/>
		<path class="st17" d="M133.4,163.9c-0.4-1.2-1.8-2.8-3.1-3.9c0,2.7,0,3.4-0.5,6.5c-1.3-1.3-2.3-2.2-3.1-3.3c0.1,2,0.2,2.5,1,3.9
			c0.7,1.3,0.3,2,1,3.3c0.7,1.3,1.7,1.6,2.2,2.5c0.7,1.1,0.4,2.9,1.2,3.8c0.6,0.6,0.9,1.1,0.7,2.6c0.5-0.9,1.2-1.4,1.7-1.8
			c1.1-0.7,2.6-0.6,3.2,0.8c0.2-0.3,0.4-0.6,0.7-0.9c-0.2-0.4-0.4-0.8-0.6-1.2c-0.4-0.9-0.3-2.1-0.6-2.6c-0.2-0.4-1-0.9-1.4-1.6
			c-0.4-0.7-0.3-2.3-0.6-3.1c-0.4-0.8-0.8-1.1-1.1-2.1C133.9,166.5,133.7,164.5,133.4,163.9z"/>
		<path class="st17" d="M136.3,114.9c0-0.1,0-0.3,0-0.5C136.2,114.6,136.2,114.8,136.3,114.9z"/>
		<path class="st1" d="M70.9,22.6c-1.7,1.1-2.3,1.3-3.2,1.8c0.5,0.5,4.5-0.2,5.2-0.4l0,0c1-0.2,1.1,0.2,2.2,0.6
			C73.2,23.5,72.1,22.7,70.9,22.6z"/>
		<path class="st18" d="M124.9,91.3c0,17.8-14.4,32.2-32.2,32.2c-17.8,0-32.2-14.4-32.2-32.2c0-17.8,14.4-32.2,32.2-32.2
			C110.5,59.1,124.9,73.6,124.9,91.3z"/>
		<linearGradient id="SVGID_14_" gradientUnits="userSpaceOnUse" x1="65.0478" y1="91.326" x2="119.7763" y2="91.326">
			<stop  offset="1.123600e-02" style="stop-color:#D9D9D9"/>
			<stop  offset="7.931773e-02" style="stop-color:#E6E6E6"/>
			<stop  offset="0.1853" style="stop-color:#F4F4F4"/>
			<stop  offset="0.3161" style="stop-color:#FDFDFD"/>
			<stop  offset="0.544" style="stop-color:#FFFFFF"/>
			<stop  offset="0.6673" style="stop-color:#FBFBFB"/>
			<stop  offset="0.7843" style="stop-color:#F0F0F0"/>
			<stop  offset="0.8983" style="stop-color:#DDDDDD"/>
			<stop  offset="0.9725" style="stop-color:#CCCCCC"/>
		</linearGradient>
		<path class="st19" d="M119.8,91.3c0,15.1-12.2,27.4-27.4,27.4c-3.3,0-6.4-0.6-9.4-1.6c-10.5-3.8-18-13.9-18-25.7
			c0-11.9,7.6-22,18.1-25.8c2.9-1,6-1.6,9.3-1.6C107.5,64,119.8,76.2,119.8,91.3z"/>
		<path class="st20" d="M118.2,82.2L118.2,82.2c-23.9-6.4-51.6,0-51.6,0c2.7-7.7,8.8-13.9,16.6-16.7c2.9-1,6-1.6,9.3-1.6
			C104.3,64,114.5,71.6,118.2,82.2z"/>
		<path d="M118.2,100.4L118.2,100.4c-23.9,6.4-51.6,0-51.6,0c2.7,7.7,8.8,13.9,16.6,16.7c2.9,1,6,1.6,9.3,1.6
			C104.3,118.7,114.5,111.1,118.2,100.4z"/>
		
			<image style="overflow:visible;" width="139" height="63" xlink:href="AA07CFCB5D4FDE2E.png"  transform="matrix(0.24 0 0 0.24 82.6602 101.5474)">
		</image>
		
			<image style="overflow:visible;" width="140" height="64" xlink:href="AA07CFCB5D4FDE32.png"  transform="matrix(0.24 0 0 0.24 82.9002 66.0274)">
		</image>
		<linearGradient id="SVGID_15_" gradientUnits="userSpaceOnUse" x1="97.7456" y1="91.5358" x2="80.2267" y2="102.4751">
			<stop  offset="0" style="stop-color:#FFFFFF"/>
			<stop  offset="0.6292" style="stop-color:#CCCCCC"/>
		</linearGradient>
		<path class="st21" d="M96.7,80.4c11.7,0.6,19.5,2.2,19.5,2.2c2.5,2.5,2.3,12.8,0.1,17.2c0,0-8.4,1.8-17.8,2.2
			c-6.8,0.3-15.3-0.4-15.3-0.4s-0.4-3-0.4-10.4c0-7.4,0.3-10.5,0.3-10.5S90.3,80.1,96.7,80.4z"/>
		<path class="st22" d="M81.3,90.7c0,15.6,1.8,26.3,1.8,26.3c-10.5-3.8-18-13.9-18-25.7c0-11.9,7.6-22,18.1-25.8
			C83.2,65.6,81.3,74.9,81.3,90.7z"/>
		
			<image style="overflow:visible;" width="62" height="192" xlink:href="AA07CFCB5D4FDE35.png"  transform="matrix(0.24 0 0 0.24 67.7802 68.9074)">
		</image>
		<g>
			<g>
				<path d="M92.6,125c-18.5,0-33.6-15.1-33.6-33.6c0-18.5,15.1-33.6,33.6-33.6c18.5,0,33.6,15.1,33.6,33.6
					C126.2,109.9,111.2,125,92.6,125z M92.6,60.1c-17.2,0-31.3,14-31.3,31.3c0,17.3,14,31.3,31.3,31.3c17.3,0,31.3-14,31.3-31.3
					C123.9,74.1,109.9,60.1,92.6,60.1z"/>
			</g>
			<g>
				<path d="M112.1,119.8c0,0-2.8-0.8-3.5-1l-0.9-3.5c0,0,0-0.1-0.1-0.1c0,0-0.1,0-0.1,0c0,0-1.6,2.3-2,2.9c-0.8,0-3.6-0.2-3.6-0.2
					c0,0-0.1,0-0.1,0c0,0,0,0,0,0.1l2.2,2.9c-0.3,0.7-1.4,3.5-1.4,3.5c0,0,0,0.1,0,0.1c0,0,0.1,0,0.1,0l3.4-1.4l2.7,2.1c0,0,0,0,0,0
					c0,0,0,0,0,0c0,0,0,0,0-0.1c0,0,0-3,0-3.4c0.7-0.4,3.1-1.8,3.1-1.8C112.1,120,112.2,119.9,112.1,119.8
					C112.1,119.9,112.1,119.9,112.1,119.8"/>
				<path class="st1" d="M109.3,120.3C109.3,120.3,109.3,120.3,109.3,120.3c0-0.1,0-0.1,0-0.1l-0.4-0.1l-1.2-0.4l-0.2-0.7l-0.3-1
					l0,0c0,0,0,0,0,0c0,0,0,0-0.1-0.1c0,0-0.1,0-0.1,0l-1.1,1.4l-1.7,0c0,0,0,0,0,0c0,0,0,0,0,0c0,0,0,0,0,0c0,0,0,0,0,0l1.1,1.4
					l-0.3,0.9l-0.2,0.7c0,0,0,0,0,0c0,0,0,0,0,0.1l0,0c0,0,0,0,0.1,0c0,0,0,0,0,0h0l0.6-0.3l0.9-0.4l1.4,1.1c0,0,0,0,0.1,0
					c0,0,0,0,0,0c0,0,0,0,0-0.1l0-1.8L109.3,120.3C109.3,120.3,109.3,120.3,109.3,120.3"/>
				<path d="M83,118C83,118,83,117.9,83,118c-0.1,0-2.9,0.2-3.6,0.2c-0.5-0.6-2-2.9-2-2.9c0,0-0.1,0-0.1,0c0,0-0.1,0-0.1,0.1
					l-0.9,3.5c-0.8,0.2-3.5,1-3.5,1c0,0-0.1,0-0.1,0.1c0,0,0,0.1,0,0.1c0,0,2.4,1.4,3.1,1.8c0,0.5,0,3.4,0,3.4c0,0,0,0,0,0.1
					c0,0,0,0,0,0c0,0,0,0,0.1,0l2.7-2.1l3.4,1.4c0,0,0.1,0,0.1,0c0,0,0-0.1,0-0.1c0,0-1.1-2.7-1.4-3.5L83,118
					C83,118.1,83,118,83,118"/>
				<path class="st1" d="M80,120.2l0.6-0.8c0,0,0,0,0,0c0,0,0,0,0,0c0,0,0,0-0.1,0l-1.7,0l-0.5-0.7l-0.5-0.7h0c0,0,0,0-0.1,0
					c0,0-0.1,0-0.1,0.1l-0.5,1.7l-0.8,0.3l-0.8,0.3c0,0-0.1,0-0.1,0.1c0,0,0,0.1,0,0.1l1.4,0.8l0,1.8c0,0,0,0,0,0.1c0,0,0,0,0,0v0
					c0,0,0,0,0,0l0.9-0.7l0.5-0.4l1.1,0.5l0.4,0.2c0,0,0.1,0,0.1,0h0c0,0,0-0.1,0-0.1l-0.3-0.9l-0.3-0.7L80,120.2z"/>
				<path d="M72.4,71.3l-3.3-1.7l-0.3-3.7c0,0,0-0.1,0-0.1c0,0-0.1,0-0.1,0c0,0-1.9,2.1-2.4,2.7L63,67.8c0,0-0.1,0-0.1,0
					c0,0,0,0.1,0,0.1c0,0,1.1,2.4,1.4,3.1c-0.5,0.6-2,3-2,3c0,0,0,0.1,0,0.1c0,0,0,0,0.1,0c0,0,2.8-0.5,3.6-0.6l2.3,2.7
					c0,0,0,0,0.1,0l0,0c0,0,0.1,0,0.1-0.1c0,0,0.5-2.7,0.6-3.5c0.8-0.3,3.3-1.3,3.3-1.3C72.4,71.4,72.5,71.4,72.4,71.3
					C72.5,71.3,72.5,71.3,72.4,71.3"/>
				<path d="M97.7,57C97.7,57,97.6,57,97.7,57c-0.1,0-2.9-0.2-3.7-0.3c-0.3-0.7-1.5-3-1.5-3l0,0c0,0,0,0-0.1,0c0,0,0,0,0,0
					c0,0-1.2,2.3-1.5,3.1c-0.8,0-3.6,0.2-3.6,0.2c0,0-0.1,0-0.1,0.1c0,0,0,0.1,0,0.1c0,0,2.1,1.9,2.7,2.5l-0.7,3.6c0,0,0,0.1,0,0.1
					c0,0,0,0,0,0c0,0,0,0,0,0c0,0,2.4-1.4,3.1-1.7c0.7,0.3,3.1,1.7,3.1,1.7c0,0,0.1,0,0.1,0c0,0,0.1,0,0-0.1l-0.7-3.6
					C95.5,59,97.7,57.1,97.7,57C97.7,57.1,97.7,57.1,97.7,57"/>
				<path class="st1" d="M95,58C94.9,57.9,94.9,57.9,95,58l-1.7-0.1l-0.8-1.7c0,0,0-0.1-0.1-0.1c0,0-0.1,0-0.1,0.1l-0.8,1.7
					l-1.6,0.1c0,0-0.1,0-0.1,0.1c0,0,0,0.1,0,0.1l1.2,1.2L90.7,61c0,0,0,0.1,0,0.1c0,0,0,0,0.1,0l1.5-0.8l1.5,0.8c0,0,0,0,0,0
					c0,0,0,0,0,0c0,0,0,0,0-0.1l-0.3-1.8L95,58C95,58,95,58,95,58"/>
				<path d="M122.5,74c0,0-1.6-2.3-2-3c0.4-0.7,1.4-3.1,1.4-3.1c0,0,0-0.1,0-0.1c0,0,0,0-0.1,0l-3.3,0.8c-0.5-0.6-2.4-2.7-2.4-2.7
					c0,0,0,0-0.1,0c0,0,0,0,0,0.1l-0.3,3.7l-3.3,1.7c0,0,0,0,0,0.1c0,0,0,0.1,0.1,0.1c0,0,2.6,1,3.3,1.3c0.2,0.8,0.6,3.5,0.6,3.5
					c0,0,0,0.1,0.1,0.1c0,0,0,0,0,0c0,0,0,0,0.1,0l2.3-2.8c0.8,0.1,3.6,0.6,3.6,0.6C122.4,74.1,122.5,74.1,122.5,74
					C122.5,74.1,122.5,74,122.5,74"/>
				<path class="st1" d="M120.1,72.5l-1-1.3l0.8-1.6c0,0,0-0.1,0-0.1c0,0-0.1,0-0.1,0l-1.8,0.4l-1-1.2c0,0-0.1,0-0.1,0
					c0,0,0,0,0,0.1l-0.1,1.7l-1.6,0.8c0,0-0.1,0-0.1,0.1c0,0,0,0.1,0.1,0.1l1.6,0.7l0.3,1.7c0,0,0,0,0.1,0.1c0,0,0,0,0,0
					c0,0,0,0,0.1,0l1.2-1.4l1.7,0.2C120.1,72.6,120.1,72.6,120.1,72.5C120.1,72.5,120.1,72.5,120.1,72.5"/>
				<path class="st1" d="M69.7,71.1l-1.6-0.8L68,68.6c0,0,0-0.1-0.1-0.1c0,0-0.1,0-0.1,0l-1.1,1.2l-1.8-0.4c0,0-0.1,0-0.1,0
					c0,0,0,0.1,0,0.1l0.8,1.6l-1,1.3c0,0,0,0.1,0,0.1c0,0,0,0,0.1,0l1.7-0.2l1.2,1.4c0,0,0,0,0.1,0c0,0,0,0,0,0c0,0,0.1,0,0.1-0.1
					l0.3-1.7l1.6-0.7C69.7,71.3,69.7,71.2,69.7,71.1C69.7,71.2,69.7,71.2,69.7,71.1"/>
				<path d="M65.8,100.8c0,0-1.8-2-2.3-2.6c0.2-0.8,1-3.4,1-3.4c0,0,0-0.1,0-0.1c0,0-0.1,0-0.1,0l-3.3,1.5c-0.7-0.4-3-2.1-3-2.1
					c0,0-0.1,0-0.1,0c0,0,0,0,0,0.1c0,0,0.4,2.8,0.5,3.5l-2.7,2.1c0,0,0,0,0,0.1c0,0,0,0.1,0.1,0.1c0,0,2.6,0.6,3.4,0.8
					c0.2,0.8,1,3.4,1,3.4c0,0,0,0.1,0.1,0.1l0,0c0,0,0.1,0,0.1,0c0,0,1.4-2.5,1.8-3.1l3.6-0.1C65.8,101,65.8,100.9,65.8,100.8
					C65.9,100.9,65.9,100.9,65.8,100.8"/>
				<path class="st1" d="M63.4,99.8l-1.1-1.3l0.4-1.7c0,0,0-0.1,0-0.1c0,0,0,0-0.1,0L61,97.4l-1.4-0.9c0,0-0.1,0-0.1,0
					c0,0,0,0,0,0.1l0.3,1.6l-1.5,1.2c0,0,0,0.1,0,0.1c0,0,0,0.1,0.1,0.1l1.8,0.4l0.4,1.6c0,0,0,0.1,0.1,0.1h0c0,0,0.1,0,0.1,0
					l0.9-1.5l1.8,0C63.4,99.9,63.4,99.9,63.4,99.8C63.4,99.8,63.4,99.8,63.4,99.8"/>
				<path d="M129,99.8l-2.7-2.1c0.2-0.8,0.5-3.5,0.5-3.5c0,0,0-0.1,0-0.1c0,0-0.1,0-0.1,0c0,0-2.3,1.6-3,2.1l-3.3-1.5
					c0,0-0.1,0-0.1,0c0,0,0,0.1,0,0.1c0,0,0.8,2.6,1,3.4c-0.5,0.6-2.3,2.7-2.3,2.7c0,0,0,0.1,0,0.1c0,0,0,0,0.1,0l3.6,0.1
					c0.4,0.7,1.8,3.1,1.8,3.1c0,0,0,0,0.1,0h0c0,0,0,0,0.1-0.1c0,0,0.8-2.7,1-3.4c0.8-0.2,3.4-0.8,3.4-0.8
					C129,100,129,99.9,129,99.8C129,99.9,129,99.8,129,99.8"/>
				<path class="st1" d="M126.5,99.3l-1.5-1.2l0.3-1.6c0,0,0-0.1,0-0.1c0,0-0.1,0-0.1,0l-1.4,0.9l-1.6-0.7c0,0-0.1,0-0.1,0
					c0,0,0,0,0,0.1l0.4,1.7l-1.1,1.3c0,0,0,0.1,0,0.1c0,0,0,0,0.1,0.1l1.8,0l0.9,1.5c0,0,0,0,0.1,0h0c0,0,0.1,0,0.1-0.1l0.4-1.6
					l1.8-0.4C126.5,99.4,126.6,99.4,126.5,99.3C126.6,99.3,126.6,99.3,126.5,99.3"/>
			</g>
		</g>
		<g>
			<path class="st1" d="M138.5,212c0.4,1.3-0.5,2.9-2.1,3.3c-1.4,0.4-2.8-0.1-3.4-1.1c0.4,0.6,1.3,0.8,2.1,0.6
				c1.1-0.3,1.7-1.3,1.4-2.2l0,0c-0.4-1.4-0.8-2.7-1.3-4.1c-0.2-0.5-0.6-0.7-1.2-0.5c0.7-1.1,1.3-2.2,2-3.3
				C136.9,207.1,137.7,209.6,138.5,212z"/>
			<path class="st1" d="M82.8,221.4c0.5,0,1-0.3,1-0.8c0-0.5-0.4-0.9-0.9-0.9c-0.6,0-1,0.3-1.1,0.8
				C81.8,220.9,82.2,221.4,82.8,221.4z"/>
			<path class="st1" d="M56.4,203c-0.5-0.1-1,0.1-1.1,0.6c-0.1,0.5,0.2,0.9,0.7,1.1c0.5,0.1,1-0.1,1.1-0.6
				C57.1,203.6,56.8,203.1,56.4,203z"/>
			<path class="st1" d="M121.5,206.1c-0.5,0.1-0.8,0.6-0.7,1c0.1,0.5,0.6,0.7,1.1,0.6c0.5-0.1,0.8-0.6,0.7-1
				C122.5,206.3,122,206,121.5,206.1z"/>
			<path class="st1" d="M86.8,221.6c0.6,0,1-0.3,1-0.8c0-0.5-0.4-0.9-1-0.9c-0.5,0-1,0.3-1,0.8C85.8,221.2,86.2,221.6,86.8,221.6z"
				/>
			<path class="st1" d="M80.4,221.2c0.5,0,1-0.3,1.1-0.8c0-0.5-0.4-0.9-0.9-0.9c-0.6,0-1,0.3-1.1,0.8
				C79.4,220.7,79.8,221.2,80.4,221.2z"/>
			<path class="st1" d="M58.5,203.6c-0.5-0.1-1,0.1-1.1,0.6c-0.1,0.5,0.2,0.9,0.7,1.1c0.5,0.1,1-0.1,1.1-0.6
				C59.3,204.2,59,203.7,58.5,203.6z"/>
			<path class="st1" d="M123.6,205.7c-0.5,0.1-0.8,0.6-0.7,1c0.1,0.5,0.6,0.7,1.1,0.6c0.5-0.1,0.8-0.6,0.7-1
				C124.6,205.8,124.1,205.6,123.6,205.7z"/>
			<path class="st1" d="M158.7,202.8L158.7,202.8L158.7,202.8c-0.3-0.5-0.5-1-0.8-1.5l0,0c-2-4.1-4.1-8.1-6.1-12.2
				c1.2,0.3,2.3,0.6,3.5,0.9c-0.6,0.5-0.5,1-0.3,1.5c1.8,3.5,3.6,6.9,5.4,10.4C159.9,202.2,159.3,202.5,158.7,202.8z"/>
			<path class="st1" d="M110.6,217.3L110.6,217.3L110.6,217.3c-0.6-5.1-1.2-10.1-1.8-15.2c1,0.7,2,1.4,3,2c-0.7,0.3-0.8,0.8-0.7,1.3
				c0.5,3.9,1,7.8,1.6,11.7C111.9,217.2,111.2,217.2,110.6,217.3z"/>
			<path class="st1" d="M70.2,216.5L70.2,216.5L70.2,216.5c0.8-5.1,1.6-10.1,2.4-15.2c0.8,0.9,1.5,1.8,2.3,2.8
				c-0.7,0.1-1,0.6-1.1,1.1c-0.6,3.9-1.1,7.8-1.7,11.6C71.5,216.7,70.8,216.6,70.2,216.5z"/>
			<path class="st1" d="M132.6,212.9L132.6,212.9L132.6,212.9c-0.2-0.6-0.3-1.1-0.5-1.7l0,0c-1.2-4.4-2.5-8.7-3.7-13.1
				c1.1,0.5,2.2,1,3.3,1.5c-0.7,0.4-0.7,0.9-0.5,1.4c1.1,3.8,2.2,7.5,3.3,11.3C133.9,212.6,133.3,212.7,132.6,212.9z"/>
			<path class="st1" d="M130.7,213.4c-0.7-2.7-1.5-5.5-2.2-8.2c-0.7,1-1.4,2-2.1,3c0.8,0,1.1,0.4,1.2,0.9c0.3,1.1,0.5,2.1,0.8,3.2
				c-2.8,0.7-5.7,1.3-8.5,1.9c-0.4,0.1-0.8,0.1-1.2,0.2c-0.6-0.4-1.2-0.7-1.8-1.1c1.3-1.4,2.2-3.8,1.7-5.8c-0.3,2.8-1.6,4.8-4.8,6
				c1.4,0.9,2.9,1.9,4.4,2.7c0.7-0.1,1.3-0.2,1.9-0.4l0,0C123.7,215.2,127.2,214.4,130.7,213.4z"/>
			<path class="st1" d="M144.7,202.9L144.7,202.9c1.2,0.4,2.4,0.9,3.7,1.3c0.4,0.9,0.8,1.9,1.2,2.8c-0.9,0.4-1.8,0.8-2.8,1.1
				c-0.2-0.5-0.4-1.1-0.6-1.6c0.3-0.1,0.6-0.2,0.9-0.4c-0.1-0.2-0.2-0.4-0.3-0.6c-0.4-0.1-0.8-0.3-1.2-0.4l0,0
				C145.3,204.4,145,203.7,144.7,202.9z M140.2,210.6L140.2,210.6L140.2,210.6c-0.2-0.5-0.4-1.1-0.5-1.6l0,0
				c-1.5-4.3-2.9-8.6-4.4-12.9c1.1,0.5,2.2,0.9,3.3,1.4c-0.6,0.4-0.6,1-0.5,1.4c1.1,3.2,2.2,6.3,3.4,9.5c0.6-0.2,1.3-0.5,1.9-0.7
				c-0.2-0.4-0.3-0.9-0.5-1.3c0.6-1.1,1.2-2.3,1.8-3.4c0.3,0.7,0.6,1.5,0.9,2.2c-0.2,0.4-0.4,0.8-0.6,1.1c0.1,0.2,0.2,0.4,0.2,0.6
				c0.3-0.1,0.6-0.2,0.9-0.4c0.2,0.5,0.4,1.1,0.6,1.6c-1.6,0.6-3.1,1.2-4.7,1.8c-0.2,0.1-0.3,0.1-0.5,0.2
				C141.1,210.3,140.6,210.4,140.2,210.6z"/>
			<path class="st1" d="M99.8,209.7L99.8,209.7c0.7,0,1.6,0.7,1.9,1.2c0.7,0,1.5-0.1,2.2-0.2c-0.8,1.9-1.7,3.8-2.7,5.6
				c1.7-0.1,3.4-0.2,5.1-0.4c-0.3-3.3-0.6-6.7-0.9-10c0-0.5-0.3-1-1-1.1c0.8-0.9,1.6-1.8,2.4-2.6c0.5,5.1,1.1,10.2,1.6,15.3l0,0l0,0
				c-0.6,0.1-1.1,0.1-1.7,0.2c-0.1,0-0.2,0-0.3,0c-2.1,0.2-4.3,0.3-6.4,0.5c-0.1-1.1-0.1-2.3-0.2-3.4l0,0c0.4-0.7,0.7-1.4,1-2.1
				c-0.2,0-0.4,0-0.6,0c-0.1-0.5-0.3-0.7-0.6-1l0,0C99.9,211,99.9,210.3,99.8,209.7z M94,219.2c0,1.4-1.3,2.6-3,2.6
				c-1.4,0-2.6-0.9-2.9-2.1c0.3,0.7,1,1.2,1.9,1.2c1.1,0,2-0.8,2-1.7l0,0c0-1.4,0-2.8,0-4.3c0-0.5-0.4-0.9-0.9-0.9
				c1-0.8,1.9-1.7,2.8-2.5c0,1.7,0,3.4,0,5.1c1.7,0,3.3,0,5-0.1c-1.1-1.8-2.2-3.6-3.2-5.4c0.7,0,1.5,0,2.2-0.1
				c0.2-0.6,1.1-1.3,1.8-1.4c0,0.7,0.1,1.4,0.1,2c-0.3,0.3-0.5,0.6-0.5,1.1c-0.2,0-0.4,0-0.6,0c0.4,0.7,0.8,1.3,1.2,2
				c0.1,1.1,0.1,2.3,0.2,3.4c-2.1,0.1-4.2,0.2-6.3,0.2C94,218.6,94,218.9,94,219.2z"/>
			<path class="st1" d="M61.5,214.9c1.6,0.4,3.2,0.7,4.9,1c0.1,0,0.1,0,0.2,0c0.6,0.1,1.2,0.2,1.7,0.3l0,0c0,0,0,0,0,0
				c0.9-5,1.7-10.1,2.6-15.1c-1,0.6-2,1.3-3.1,1.9c0.7,0.3,0.8,0.8,0.7,1.3c-0.6,3.3-1.2,6.6-1.8,9.9c-0.6-0.1-1.3-0.2-1.9-0.4
				c0.1-0.4,0.2-0.9,0.3-1.3c-0.8-1-1.6-2.1-2.3-3.1c-0.2,0.8-0.4,1.6-0.5,2.3c0.3,0.3,0.5,0.7,0.8,1c0,0.2-0.1,0.4-0.1,0.7
				c-0.3-0.1-0.6-0.1-1-0.2C61.7,213.7,61.6,214.3,61.5,214.9z M49,209.7L49,209.7c0.1-0.2,0.1-0.4,0.2-0.7c0.4-1.4-0.5-3-2.1-3.6
				c-0.1,0-0.2-0.1-0.4-0.1l0,0c-3.6-1.2-7.1-2.6-10.6-4.2c0.2-0.5,0.5-1,0.7-1.6c0.2-0.5,0.7-0.6,1.2-0.4c-0.5-1.2-1-2.3-1.5-3.5
				c-0.9,2.1-1.9,4.1-2.9,6.2c4.2,1.9,8.5,3.7,12.8,5.2c0.6,0.2,1,0.8,0.8,1.3l0,0c-0.1,0.2-0.2,0.4-0.2,0.6l0,0
				c-0.2,0.6-0.4,1.2-0.6,1.8c-0.4,0.2-0.8,0.3-1.2,0.5c-0.2-0.4-0.4-0.8-0.7-1.2c0.2-0.6,0.4-1.2,0.6-1.7c-0.5-0.2-0.9-0.3-1.4-0.5
				c-0.2-0.1-0.3-0.1-0.5-0.2c-3.5-1.3-7-2.7-10.4-4.3c-0.2,0.5-0.5,1-0.7,1.6c3.5,1.6,7,3,10.5,4.3c-0.1,0.3-0.2,0.5-0.3,0.8
				c0.7,1.2,1.3,2.3,2,3.4l0,0l0,0c1.2-0.5,2.4-0.9,3.7-1.4c0.1-0.3,0.2-0.6,0.3-0.8c1.4,0.4,2.7,0.9,4.1,1.3c0.3,0.4,0.6,0.7,1,1
				c-0.2-0.3-0.4-0.6-0.5-0.9c1.1,0.3,2.3,0.6,3.4,0.9c1.6,0.4,3.2,0.8,4.8,1.2c0.1-0.6,0.3-1.1,0.4-1.7c-0.3-0.1-0.6-0.1-0.9-0.2
				c0-0.2,0.1-0.4,0.2-0.7c0.4-0.2,0.8-0.4,1.1-0.6l0,0c0.2-0.8,0.3-1.6,0.5-2.3l0,0c-1.1,0.6-2.2,1.2-3.4,1.8
				c-0.1,0.4-0.2,0.9-0.3,1.3c-0.7-0.2-1.3-0.3-1.9-0.5c0.5-1.9,1-3.7,1.5-5.6c-1.1,0.5-2.2,1.1-3.4,1.6c0.7,0.4,0.7,0.9,0.6,1.4
				c-0.2,0.7-0.4,1.4-0.6,2.2c-0.3-0.1-0.6-0.2-0.8-0.2c0,0,0,0,0,0c-0.5-0.1-1.1-0.3-1.6-0.5c0-0.7,0.1-1.4,0.2-2
				c0.4-2.1,1-4.5-1.6-7.3c-0.8,0.4-1.5,0.7-2.3,1.1c1.9,0.6,2.6,2.3,2.9,3.6c0.3,1.7-0.6,2.9-0.2,4.3C50.8,210.3,49.9,210,49,209.7
				C49,209.7,49,209.7,49,209.7z"/>
			<path class="st1" d="M78.2,215.9c0.3,0,0.7,0.1,1,0.1c0.1-0.7,0.1-1.4,0.2-2.2c-0.3,0.1-0.6,0.2-1,0.2c0.1-0.6,0.1-1.3,0.2-1.9
				c0.5-0.2,1-0.5,1.1-1.3c0.2-1.6,0.3-3.3,0.5-4.9c0-0.5-0.1-1-0.8-1.3c1-0.7,1.9-1.4,2.9-2.1c-0.4,4.6-0.8,9.1-1.1,13.6
				c1,0.1,2.1,0.2,3.1,0.2c0-0.7,0.1-1.5,0.1-2.2c0-0.5-0.1-1-0.9-1.2c1-0.7,2-1.5,3-2.2c-0.1,1.9-0.2,3.9-0.3,5.8
				c0.6,0,1.3,0.1,1.9,0.1c0-0.7,0.1-1.5,0.1-2.2c0-0.5-0.2-1-0.9-1.2c1-0.8,1.9-1.5,2.9-2.3c-0.1,2.5-0.1,5-0.2,7.5
				c-2.9-0.1-5.8-0.2-8.7-0.5l0,0c-1.1-0.1-2.2-0.2-3.3-0.3C78,217,78.1,216.4,78.2,215.9z M78.2,214.1L78.2,214.1
				c-0.5,0-0.9,0.4-0.9,0.8c0,0.3-0.1,0.6-0.1,0.9c0.3,0,0.7,0.1,1,0.1c-0.1,0.6-0.1,1.1-0.2,1.7c-0.2,0-0.4,0-0.6-0.1l0,0
				c-0.8-0.1-1.6-0.2-2.3-0.3c0.1-0.9,0.2-1.7,0.3-2.6c0.2-1.2,1.3-2.2,2.6-2.3c0-0.1,0.3-0.1,0.6-0.2c-0.1,0.6-0.1,1.3-0.2,1.9
				C78.3,214.1,78.3,214.1,78.2,214.1z"/>
			<path class="st1" d="M28.5,201.3c0.3,0.2,0.6,0.3,0.9,0.5c0.3-0.6,0.6-1.3,1-1.9c-0.3,0-0.7,0-1.1-0.1c0.3-0.6,0.6-1.1,0.9-1.7
				c0.5,0,1.2-0.1,1.5-0.8c0.7-1.5,1.5-2.9,2.2-4.4c0.2-0.5,0.3-1-0.3-1.5c1.2-0.3,2.4-0.6,3.5-1c-2.2,4.6-4.4,9.2-6.6,13.9
				c-0.9-0.4-1.8-0.9-2.7-1.3C28,202.3,28.2,201.8,28.5,201.3z M29.1,199.6L29.1,199.6c-0.5-0.1-1,0-1.2,0.4
				c-0.1,0.3-0.3,0.5-0.4,0.8c0.3,0.2,0.6,0.3,0.9,0.5c-0.3,0.5-0.5,1-0.8,1.5c-0.9-0.5-1.8-0.9-2.7-1.4c0.4-0.8,0.8-1.5,1.2-2.3
				c0.6-1.1,2-1.6,3.3-1.2c0-0.1,0.3,0,0.6,0c-0.3,0.6-0.6,1.1-0.9,1.7C29.2,199.7,29.2,199.6,29.1,199.6z"/>
			<g>
				<path class="st1" d="M78.6,203c0-0.5-0.3-0.9-0.8-0.9c-0.5-0.1-0.9,0.3-1,0.7c-0.1,0.5,0.3,0.9,0.8,1
					C78.2,203.8,78.6,203.5,78.6,203z"/>
				<path class="st1" d="M78.4,205.1c0-0.5-0.3-0.9-0.8-1c-0.5,0-0.9,0.3-1,0.7c-0.1,0.5,0.3,0.9,0.8,1
					C77.9,205.9,78.4,205.5,78.4,205.1z"/>
			</g>
			<g>
				<path class="st1" d="M30.8,190.4c-0.2,0.4,0,1,0.4,1.2c0.5,0.2,1,0.1,1.2-0.4c0.2-0.4,0-0.9-0.4-1.2
					C31.6,189.9,31,190,30.8,190.4z"/>
				<path class="st1" d="M31.8,188.6c-0.2,0.4,0,0.9,0.4,1.2c0.5,0.2,1,0.1,1.2-0.3c0.2-0.4,0-0.9-0.4-1.2
					C32.6,188.1,32,188.2,31.8,188.6z"/>
			</g>
			<path class="st1" d="M152.3,198.7c-1.3-2.7-2.5-5.3-3.8-8c1.3,0.4,2.5,0.8,3.8,1.2c-0.6,0.5-0.7,1.1-0.5,1.6
				c0.8,1.7,1.7,3.4,2.5,5.1c-0.3,0.6-0.5,1.3-0.8,1.9c0.7,0.2,1.3,0.4,2,0.6c0.4,0.9,0.9,1.8,1.3,2.8c-0.9,0.4-1.8,0.9-2.7,1.3
				c-0.2-0.5-0.5-1-0.7-1.6c0.3-0.1,0.6-0.3,0.9-0.4c-0.1-0.2-0.2-0.4-0.3-0.6c-0.4-0.1-0.8-0.2-1.3-0.3l0,0c-0.3-0.7-0.7-1.5-1-2.2
				l0,0C152,199.5,152.2,199.1,152.3,198.7z M154.2,205c-0.9,0.4-1.8,0.8-2.7,1.2c-0.4-0.9-0.8-1.9-1.2-2.8c0.3-0.6,0.6-1.2,0.9-1.9
				c-0.7-0.2-1.3-0.4-2-0.6c0-0.1-0.1-0.2-0.1-0.3c-0.7-1.6-1.4-3.2-2.1-4.8c-0.2-0.5-0.8-0.8-1.5-0.7c0.5-1.2,1.1-2.4,1.6-3.7
				c1.2,2.7,2.4,5.4,3.6,8.1c0.4,0.1,0.8,0.3,1.2,0.4c0.3,0.7,0.7,1.5,1,2.2c-0.2,0.4-0.4,0.8-0.5,1.2c0.1,0.2,0.2,0.4,0.3,0.6
				c0.3-0.1,0.6-0.3,0.9-0.4C153.7,204,153.9,204.5,154.2,205z"/>
			<path class="st1" d="M156.1,206.9c0.4,0.1,0.8,0.3,1.2,0.4c-1.2,0.6-2.4,1.1-3.7,1.7c0.2-0.3,0.3-0.7,0.5-1
				c0.1,0.1,0.3,0.1,0.6,0c-0.7-0.6,0.1-1.6,1-1.3c-0.1,0-0.2,0-0.3,0.1c-0.3,0.1-0.4,0.4-0.3,0.6c0.1,0.2,0.4,0.3,0.6,0.2
				C156,207.4,156.2,207.1,156.1,206.9z"/>
		</g>
	</g>
</g>
<path class="st2" d="M311.1,139.3c1,0,4-0.1,4.7-0.4c0-0.9-0.1-2.3-0.1-5.4v-19.8c0-2-0.1-2.4-0.9-2.4c-0.9,0-4,0.2-4.8,0.4
	c0.1,0.8,0.1,2.6,0.1,5.6v21.1C310.2,139.2,310.4,139.3,311.1,139.3z M289.8,81.4c0,0.7,0.3,0.9,0.9,0.9c1,0,4-0.1,4.7-0.4
	c0-0.9-0.1-2.3-0.1-5.4V56.7c0-2-0.1-2.4-0.9-2.4c-0.9,0-4,0.2-4.8,0.4c0.1,0.8,0.1,2.6,0.1,5.6V81.4z M259.3,74.3
	c0,3.7,0,6.2-0.1,8c1.3,0,2.7,0,3.5-0.2c0.7-0.1,1-0.3,1-1.2V69.4c0-2.2,0-4.5-0.2-9c1.8,3.4,3.1,5.9,5.4,9.5c3.5,5.4,5.7,8.8,8,12
	c0.3,0.4,0.6,0.6,1.1,0.6c1.3,0,3.8-0.5,4.2-0.7V62.4c0-3.7,0-6.2,0.1-8.1c-1,0-2.2,0-3.6,0.2c-0.6,0.1-0.9,0.3-0.9,1.3v12.3
	c0,2.2,0,3.9,0.2,7.3c-1.1-2.2-2.7-4.7-4.7-7.8c-3.2-4.9-6.8-10.4-8.2-12.4c-0.4-0.5-0.8-0.8-1.2-0.8c-0.8,0-4.6,0.2-5.4,0.4v0.2
	l0.8,1.1V74.3z M300.8,58.2h7.9v23.3c0,0.7,0.3,0.8,0.9,0.8c1.8,0,3.5-0.1,4.7-0.4c0-0.9-0.1-2.3-0.1-5.4V58.2h7
	c0.9-0.2,2.1-1.3,2.3-3.7h-15.7c-4.4,0-5.6,0-6.3-0.2c-0.4,0.5-1,1.2-1.5,2.6C299.7,57.9,300.1,58.2,300.8,58.2z M267.4,139.3
	c1,0,4-0.1,4.7-0.4c0-0.9-0.1-2.3-0.1-5.4v-19.8c0-2-0.1-2.4-0.9-2.4c-0.9,0-4,0.2-4.8,0.4c0.1,0.8,0.1,2.6,0.1,5.6v21.1
	C266.5,139.2,266.7,139.3,267.4,139.3z M259,128.9l-2.3-16.2c-0.1-1.1-0.4-1.4-0.8-1.4c-1.1,0-4,0.3-4.7,0.6v0.7
	c-1.8,4.5-4.8,12.4-7,18.2l-5.9-16.4c-0.8-2.2-1.1-2.9-1.8-3c-2.1,0-3.7,0.4-4.8,0.6l0.1,0.8c-1.7,10-3.5,21.4-4.3,26.1
	c0.7,0.4,2.7,0.4,3.9,0.4c0.5,0,0.7-0.2,0.8-0.7c0.7-5.1,2-15.2,2.6-20.6c2,6,5.9,17.6,6.9,21.1c0.9,0,1.9-0.2,2.7-0.3
	c1-0.2,1.3-0.6,1.6-1.5c2.8-8.3,5.4-15.6,6.6-19.4l1.3,11c0.5,4.7,0.7,7,1,9.3c0.1,0.9,0.7,1.1,1.2,1.1c0.9,0,3.7-0.2,4.4-0.4
	C260.2,136.8,259.7,133.5,259,128.9z M228.7,69.4c0,9.5,4,13.3,11.4,13.3c5.4,0,11.9-1.8,11.9-14.1v-6.2c0-3.7,0-6.2,0.1-8
	c-0.9,0-2.6,0-3.9,0.2c-0.6,0.1-1,0.3-1,1.1v13.2c0,8.4-3,9.9-6.6,9.9c-3,0-6.6-1.3-6.6-9.5V56.9c0-2.2-0.1-2.6-0.9-2.6
	c-0.9,0-3.9,0.2-4.7,0.4c0.1,0.9,0.1,2.7,0.1,5.7V69.4z M611.8,81.7c0.6-1.4,1.8-4.7,2.9-7.2h9.9c1,2.5,1.6,4.2,2.4,6.4
	c0.4,1.2,0.8,1.4,1.5,1.4c1,0,4-0.2,4.9-0.5v-0.2c-0.9-1.8-1.9-4.6-3.7-9.1c-1.5-3.8-4.9-12.5-6.9-17.3c-0.2-0.5-0.6-0.8-1-0.8
	c-0.5,0-3,0.2-4.6,0.5l0.4,0.9c-1.7,4-8.5,20.4-10.8,25.7v0.2c1,0.3,2.9,0.6,3.9,0.6C611.3,82.3,611.6,82.1,611.8,81.7z M619.7,60.6
	c0.5,1.4,1.8,4.7,3.8,10.2h-7.7C617.4,67,618.6,63.5,619.7,60.6z M633.4,58.2h7.9v23.3c0,0.7,0.3,0.8,0.9,0.8c1.8,0,3.5-0.1,4.7-0.4
	c0-0.9-0.1-2.3-0.1-5.4V58.2h7c0.9-0.2,2.1-1.3,2.3-3.7h-15.7c-4.4,0-5.6,0-6.3-0.2c-0.4,0.5-1,1.2-1.5,2.6
	C632.4,57.9,632.7,58.2,633.4,58.2z M534.4,82.3c0.5,0,0.7-0.2,0.8-0.7c0.7-5.1,2-15.2,2.6-20.6c2,6,5.9,17.6,6.9,21.1
	c0.9,0,1.9-0.2,2.7-0.3c1-0.2,1.3-0.6,1.6-1.5c2.8-8.3,5.4-15.6,6.6-19.4l1.3,11c0.5,4.7,0.7,7,1,9.3c0.1,0.9,0.7,1.1,1.2,1.1
	c0.9,0,3.7-0.2,4.4-0.4c-0.4-2.1-0.9-5.4-1.6-10l-2.3-16.2c-0.1-1.1-0.4-1.4-0.8-1.4c-1.1,0-4,0.3-4.7,0.6v0.7
	c-1.8,4.5-4.8,12.4-7,18.2l-5.9-16.4c-0.8-2.2-1.1-2.9-1.8-3c-2.1,0-3.7,0.4-4.8,0.6l0.1,0.8c-1.7,10-3.5,21.4-4.3,26.1
	C531.2,82.3,533.3,82.3,534.4,82.3z M582.4,82.3c0.9,0,3.3,0,4.5-0.2c0.7-0.1,1-0.3,1-1.1V70.8h0.8c1.5,0,2.3,0.4,3.7,2.9
	c1.8,3.4,2.6,5.2,3.8,6.7c1.1,1.5,2.3,2,3.9,2c1.6,0,3.2-0.2,3.6-0.4v-0.2c-1.1-1.2-2.5-3.2-4.6-6.9c-1.5-2.6-2.9-4.8-3.9-5.7
	c1.8-0.8,5.3-2.8,5.3-7c0-5.6-3.5-8-10.5-8c-2,0-6.4,0.5-7.6,0.7c0.1,1.2,0.1,2.3,0.1,4.5v14.7C582.6,77.9,582.5,80.5,582.4,82.3z
	 M588,57.6c0.5-0.1,1.3-0.1,1.9-0.1c2.7,0,5,1.5,5,5.2c0,2.9-1.8,4.3-2.7,4.6c-0.6,0.3-3,0.4-4.2,0.3V57.6z M660.5,81l0.7,0.8
	c1.1,0.2,4,0.4,7.8,0.4c3.4,0,5.4-0.1,6-0.2c1.1-0.6,1.9-1.6,2.3-3.5l-0.1-0.1c-2.1,0.2-5.3,0.2-7.1,0.2c-1.7,0-3.1-0.1-4.1-0.3
	v-8.6h6.7c1.5,0,2.5-0.6,2.9-3.7H666v-7.9h4.6c2,0,3.5,0,4.1-0.3c0.5-0.6,1.1-1.4,1.3-3.4h-10.7c-1.8,0-3.7,0.3-5,0.6
	c0.1,1.8,0.1,3.4,0.1,5.5V81z M654.6,117.3v21.1c0,0.7,0.3,0.9,0.9,0.9c1,0,4-0.1,4.7-0.4c0-0.9-0.1-2.3-0.1-5.4v-19.8
	c0-2-0.1-2.4-0.9-2.4c-0.9,0-4,0.2-4.8,0.4C654.6,112.5,654.6,114.3,654.6,117.3z M427.7,125.5c0,6.6,4,14.2,14.2,14.2
	c9.3,0,14.2-6.8,14.2-14.7c0-7.7-5.1-14.2-14-14.2h0C433.1,110.9,427.7,117.2,427.7,125.5z M441.6,114.3L441.6,114.3
	c5.5,0,8.7,4.9,8.7,11.1c0,6.9-3,10.8-8,10.8c-4.6,0-8.6-3.9-8.6-11.3C433.7,117.8,437.2,114.3,441.6,114.3z M418.8,82.3
	c0.9,0,3.3,0,4.5-0.2c0.7-0.1,1-0.3,1-1.1V70.8h0.8c1.5,0,2.3,0.4,3.7,2.9c1.8,3.4,2.6,5.2,3.8,6.7c1.1,1.5,2.3,2,3.9,2
	c1.6,0,3.2-0.2,3.6-0.4v-0.2c-1.1-1.2-2.5-3.2-4.6-6.9c-1.5-2.6-2.9-4.8-3.9-5.7c1.8-0.8,5.3-2.8,5.3-7c0-5.6-3.5-8-10.5-8
	c-2,0-6.4,0.5-7.6,0.7c0.1,1.2,0.1,2.3,0.1,4.5v14.7C418.9,77.9,418.9,80.5,418.8,82.3z M424.3,57.6c0.5-0.1,1.3-0.1,1.9-0.1
	c2.7,0,5,1.5,5,5.2c0,2.9-1.8,4.3-2.7,4.6c-0.6,0.3-3,0.4-4.2,0.3V57.6z M392.6,81.7c0.6-1.4,1.8-4.7,2.9-7.2h9.9
	c1,2.5,1.6,4.2,2.4,6.4c0.4,1.2,0.8,1.4,1.5,1.4c1,0,4-0.2,4.9-0.5v-0.2c-0.9-1.8-1.9-4.6-3.7-9.1c-1.5-3.8-4.9-12.5-6.9-17.3
	c-0.2-0.5-0.6-0.8-1-0.8c-0.5,0-3,0.2-4.6,0.5l0.4,0.9c-1.7,4-8.5,20.4-10.8,25.7v0.2c1,0.3,2.9,0.6,3.9,0.6
	C392.1,82.3,392.5,82.1,392.6,81.7z M400.6,60.6c0.5,1.4,1.8,4.7,3.8,10.2h-7.7C398.2,67,399.5,63.5,400.6,60.6z M509.7,81l0.7,0.8
	c1.1,0.2,4,0.4,7.8,0.4c3.4,0,5.4-0.1,6-0.2c1.1-0.6,1.9-1.6,2.3-3.5l-0.1-0.1c-2.1,0.2-5.3,0.2-7.1,0.2c-1.7,0-3.1-0.1-4.1-0.3
	v-8.6h6.7c1.5,0,2.5-0.6,2.9-3.7h-9.6v-7.9h4.6c2,0,3.5,0,4.1-0.3c0.5-0.6,1.1-1.4,1.3-3.4h-10.7c-1.8,0-3.7,0.3-5,0.6
	c0.1,1.8,0.1,3.4,0.1,5.5V81z M349.6,81.6c2.8,0.6,5.5,0.8,8.7,0.8c9,0,15.8-5.1,15.8-14.6c0-5.6-2.4-13.6-15.6-13.6
	c-3.6,0-8.1,0.6-9,0.8c0,1.1,0.1,2,0.1,5V81.6z M355.1,57.9c0.7-0.1,1.5-0.2,2.8-0.2c6.6,0,10.3,3.6,10.3,10.3
	c0,9.2-5.8,11.1-9.7,11.1c-1.2,0-2.4-0.1-3.4-0.4V57.9z M448.1,81.7c0.6-1.4,1.8-4.7,2.9-7.2h9.9c1,2.5,1.6,4.2,2.4,6.4
	c0.4,1.2,0.8,1.4,1.5,1.4c1,0,4-0.2,4.9-0.5v-0.2c-0.9-1.8-1.9-4.6-3.7-9.1c-1.5-3.8-4.9-12.5-6.9-17.3c-0.2-0.5-0.6-0.8-1-0.8
	c-0.5,0-3,0.2-4.6,0.5l0.4,0.9c-1.7,4-8.5,20.4-10.8,25.7v0.2c1,0.3,2.9,0.6,3.9,0.6C447.6,82.3,447.9,82.1,448.1,81.7z M456,60.6
	c0.5,1.4,1.8,4.7,3.8,10.2h-7.7C453.7,67,454.9,63.5,456,60.6z M327.8,81l0.7,0.8c1.1,0.2,4,0.4,7.8,0.4c3.4,0,5.4-0.1,6-0.2
	c1.1-0.6,1.9-1.6,2.3-3.5l-0.1-0.1c-2.1,0.2-5.3,0.2-7.1,0.2c-1.7,0-3.1-0.1-4.1-0.3v-8.6h6.7c1.5,0,2.5-0.6,2.9-3.7h-9.6v-7.9h4.6
	c2,0,3.5,0,4.1-0.3c0.5-0.6,1.1-1.4,1.3-3.4h-10.7c-1.8,0-3.7,0.3-5,0.6c0.1,1.8,0.1,3.4,0.1,5.5V81z M298.1,112.8v12.3
	c0,2.2,0,3.9,0.2,7.3c-1.1-2.2-2.7-4.7-4.7-7.8c-3.2-4.9-6.8-10.4-8.2-12.4c-0.4-0.5-0.8-0.8-1.2-0.8c-0.8,0-4.6,0.2-5.4,0.4v0.2
	l0.8,1.1v18.3c0,3.7,0,6.2-0.1,8c1.3,0,2.7,0,3.5-0.2c0.7-0.1,1-0.3,1-1.2v-11.5c0-2.2,0-4.5-0.2-9c1.8,3.4,3.1,5.9,5.4,9.6
	c3.5,5.4,5.7,8.8,8,12c0.3,0.4,0.6,0.6,1.1,0.6c1.3,0,3.8-0.5,4.2-0.7v-19.4c0-3.7,0-6.2,0.1-8.1c-1,0-2.2,0-3.6,0.2
	C298.4,111.6,298.1,111.8,298.1,112.8z M564,112.6v13.2c0,8.4-3,9.9-6.6,9.9c-3,0-6.6-1.3-6.6-9.5v-12.3c0-2.2-0.1-2.6-0.9-2.6
	c-0.9,0-3.9,0.2-4.7,0.4c0.1,0.9,0.1,2.7,0.1,5.7v9c0,9.5,4,13.3,11.4,13.3c5.4,0,11.9-1.8,11.9-14.1v-6.2c0-3.7,0-6.2,0.1-8
	c-0.9,0-2.6,0-3.9,0.2C564.4,111.6,564,111.8,564,112.6z M524.1,111.3c-3.6,0-8.1,0.6-9,0.8c0,1.1,0.1,2,0.1,5v21.5
	c2.8,0.6,5.5,0.8,8.7,0.8c9,0,15.8-5.1,15.8-14.6C539.8,119.2,537.4,111.3,524.1,111.3z M524.1,136c-1.2,0-2.4-0.1-3.4-0.4v-20.8
	c0.7-0.1,1.5-0.2,2.8-0.2c6.6,0,10.3,3.6,10.3,10.3C533.9,134.1,528.1,136,524.1,136z M575.1,81.9c0-0.9-0.1-2.3-0.1-5.4V56.7
	c0-2-0.1-2.4-0.9-2.4c-0.9,0-4,0.2-4.8,0.4c0.1,0.8,0.1,2.6,0.1,5.6v21.1c0,0.7,0.3,0.9,0.9,0.9C571.4,82.3,574.4,82.2,575.1,81.9z
	 M692.2,66.2c-4.1-2.3-5.5-3.4-5.5-5.5c0-1.9,1.7-3,4-3c1.4,0,3.3,0.6,4.3,1.1c1.5,0.1,2.2-1.7,2.2-2.8c-1.1-1.1-4-2.1-6.3-2.1h0
	c-7.3,0-9.4,4.8-9.4,7.8c0,2.6,0.9,5.5,6,8.2c4.4,2.4,5.5,3.5,5.5,5.5c0,2.2-1.8,3.4-4.5,3.4c-2.1,0-4.8-1-6.3-2.1
	c-0.4,0.3-1.1,1.9-1.1,2.8c0,0.6,0.3,1,1,1.5c1.1,0.8,3.4,1.7,6.4,1.7c5.2,0,9.9-2.9,9.9-8.4C698.4,70.1,696.1,68.4,692.2,66.2z
	 M680.4,110.9L680.4,110.9c-9,0-14.3,6.3-14.3,14.7c0,6.6,4,14.2,14.2,14.2c9.3,0,14.2-6.8,14.2-14.7
	C694.5,117.3,689.3,110.9,680.4,110.9z M680.7,136.3c-4.6,0-8.6-3.9-8.6-11.3c0-7.2,3.6-10.7,7.9-10.7h0c5.5,0,8.7,4.9,8.7,11.1
	C688.6,132.3,685.6,136.3,680.7,136.3z M627.5,138.6c-0.9-1.8-1.9-4.6-3.7-9.1c-1.5-3.8-4.9-12.5-6.9-17.3c-0.2-0.5-0.6-0.8-1-0.8
	c-0.5,0-3,0.2-4.6,0.5l0.4,0.9c-1.7,4-8.5,20.4-10.8,25.7v0.2c1,0.3,2.9,0.6,3.9,0.6c0.7,0,1.1-0.2,1.2-0.6c0.6-1.4,1.8-4.7,2.9-7.2
	h9.9c1,2.5,1.6,4.2,2.4,6.4c0.4,1.2,0.8,1.4,1.5,1.4c1,0,4-0.2,4.9-0.5V138.6z M610,127.8c1.5-3.8,2.7-7.3,3.8-10.2
	c0.5,1.4,1.8,4.7,3.8,10.2H610z M719.9,111.5c-0.6,0.1-0.9,0.3-0.9,1.3v12.3c0,2.2,0,3.9,0.2,7.3c-1.1-2.2-2.7-4.7-4.7-7.8
	c-3.2-4.9-6.8-10.4-8.2-12.4c-0.4-0.5-0.8-0.8-1.2-0.8c-0.8,0-4.6,0.2-5.4,0.4v0.2l0.8,1.1v18.3c0,3.7,0,6.2-0.1,8
	c1.3,0,2.7,0,3.5-0.2c0.7-0.1,1-0.3,1-1.2v-11.5c0-2.2,0-4.5-0.2-9c1.8,3.4,3.1,5.9,5.4,9.6c3.5,5.4,5.7,8.8,8,12
	c0.3,0.4,0.6,0.6,1.1,0.6c1.3,0,3.8-0.5,4.2-0.7v-19.4c0-3.7,0-6.2,0.1-8.1C722.4,111.3,721.2,111.4,719.9,111.5z M641,115.2h7
	c0.9-0.2,2.1-1.3,2.3-3.7h-15.7c-4.4,0-5.6,0-6.3-0.2c-0.4,0.5-1,1.2-1.5,2.6c-0.3,1,0,1.3,0.7,1.3h7.9v23.3c0,0.7,0.3,0.8,0.9,0.8
	c1.8,0,3.5-0.1,4.7-0.4c0-0.9-0.1-2.3-0.1-5.4V115.2z M591,135.7c-7,0-10.8-4.6-10.8-10.6c0-7,4.4-10.5,9.7-10.5
	c2.4,0,4.5,0.6,5.8,1.2c1.4,0.2,2.4-1.3,2.3-2.8c-0.7-0.8-3.9-2.2-8.1-2.2c-8.7,0-15.6,5.6-15.6,14.7c0,8.4,5.4,14.1,15.4,14.1
	c2.9,0,5.3-0.8,6.4-1.5c0.7-0.7,1.3-2,1.5-3.5l-0.1-0.1C596.3,135,594,135.7,591,135.7z M390.2,138.8c-1.1-1.2-2.5-3.2-4.6-6.9
	c-1.5-2.6-2.9-4.8-3.9-5.7c1.8-0.8,5.3-2.8,5.3-7c0-5.6-3.5-8-10.5-8c-2,0-6.4,0.5-7.6,0.7c0.1,1.2,0.1,2.3,0.1,4.5v14.7
	c0,3.7,0,6.3-0.1,8.1c0.9,0,3.3,0,4.5-0.2c0.7-0.1,1-0.3,1-1.1v-10.2h0.8c1.5,0,2.3,0.4,3.7,2.9c1.8,3.4,2.6,5.2,3.8,6.7
	c1.1,1.5,2.3,2,3.9,2c1.6,0,3.2-0.2,3.6-0.4V138.8z M378.6,124.3c-0.6,0.3-3,0.4-4.2,0.3v-10c0.5-0.1,1.3-0.1,1.9-0.1
	c2.7,0,5,1.5,5,5.2C381.3,122.7,379.6,124,378.6,124.3z M355.4,115.2h7c0.9-0.2,2.1-1.3,2.3-3.7H349c-4.4,0-5.6,0-6.3-0.2
	c-0.4,0.5-1,1.2-1.5,2.6c-0.3,1,0,1.3,0.7,1.3h7.9v23.3c0,0.7,0.3,0.8,0.9,0.8c1.8,0,3.5-0.1,4.7-0.4c0-0.9-0.1-2.3-0.1-5.4V115.2z
	 M338.6,131.3c0-4.2-2.2-5.9-6.2-8.1c-4.1-2.3-5.5-3.4-5.5-5.5c0-1.9,1.7-3,4-3c1.4,0,3.3,0.6,4.3,1.1c1.5,0.1,2.2-1.7,2.2-2.8
	c-1.1-1.1-4-2.1-6.3-2.1h0c-7.3,0-9.4,4.8-9.4,7.8c0,2.6,0.9,5.5,6,8.2c4.4,2.4,5.5,3.5,5.5,5.5c0,2.2-1.8,3.4-4.5,3.4
	c-2.1,0-4.8-1-6.3-2.1c-0.4,0.3-1.1,1.9-1.1,2.8c0,0.6,0.3,1,1,1.5c1.1,0.8,3.4,1.7,6.4,1.7C333.8,139.7,338.6,136.7,338.6,131.3z
	 M488,67c2-1.1,3.9-3.1,3.9-5.9c0-2.7-1.3-6.9-9.5-6.9c-2.8,0-7,0.5-8.1,0.8c0.1,2,0.1,3.3,0.1,5.6v21.1c1.9,0.4,5.2,0.7,7.4,0.7
	c6.9,0,11.8-3,11.8-8.9C493.6,70.7,491.8,68.1,488,67z M479.8,57.7c0.4-0.1,1.5-0.2,2.2-0.2c2.8,0,4.6,1.6,4.6,4.4
	c0,2.2-1,3.7-2.1,4.3c-2.1,0-3.4,0-4.7,0.2V57.7z M482.1,79.2c-0.7,0-1.8-0.1-2.3-0.2v-9.4c0.7-0.1,1.4-0.1,2-0.1
	c3.7,0,5.8,1.6,5.8,4.5C487.6,77.4,485.3,79.2,482.1,79.2z M508,139.1c1.1-0.6,1.9-1.6,2.3-3.5l-0.1-0.1c-2.1,0.2-5.3,0.2-7.1,0.2
	c-1.7,0-3.1-0.1-4.1-0.3v-8.6h6.7c1.5,0,2.5-0.6,2.9-3.7H499v-7.9h4.6c2,0,3.5,0,4.1-0.3c0.5-0.6,1.1-1.4,1.3-3.4h-10.7
	c-1.8,0-3.7,0.3-5,0.6c0.1,1.8,0.1,3.4,0.1,5.5V138l0.7,0.8c1.1,0.2,4,0.4,7.8,0.4C505.4,139.3,507.3,139.2,508,139.1z M474.3,127.6
	c1.7,0,2.8-0.3,3.2-3.7h-9.9v-8.8h5.9c1.9,0,2.9,0,3.4-0.3c0.6-0.6,1.2-1.4,1.5-3.4c-2.1,0-9.6,0-11.2,0c-1.9,0.1-4.5,0.4-5.3,0.7
	c0.1,1.5,0.1,2.7,0.1,4.7v21.6c0,0.7,0.3,0.8,1,0.8c1.7,0,3.9-0.1,4.7-0.4c-0.1-3.3-0.1-7-0.1-11.4H474.3z M413.9,111.8
	c-0.6-0.2-2.1-0.4-3.7-0.4c-0.8,1.5-5.1,8.6-7,11.5c-1.9-3.2-4.1-7-5.6-9.5c-1.1-1.8-1.4-2.1-2.2-2.1c-1.1,0-3.3,0.4-4.8,0.8v0.1
	c2.6,3.8,6.5,9.7,8.9,13.8c0.3,0.5,0.4,1.2,0.4,2v10.4c0,0.7,0.1,0.8,0.8,0.8c2.4,0,3.8-0.1,4.8-0.4c0-1-0.1-2.3-0.1-5.3v-6
	c0-0.6,0.1-1.2,0.5-1.8c0.5-0.7,7-10.4,8.1-12.2C414.5,112.6,414.6,112.1,413.9,111.8z"/>
</svg>
